<svg xmlns="http://www.w3.org/2000/svg" width="184" height="194" viewBox="0 0 184 194">
<g>
<path d="M 95.77,0.22 L 97.76,0.86 L 98.60,1.27 L 100.09,2.02 L 100.80,2.38 L 102.05,3.02 L 103.24,3.65 L 105.08,4.70 L 105.92,5.21 L 107.26,6.14 L 109.00,7.56 L 109.60,8.11 L 110.84,8.85 L 111.21,9.02 L 112.16,9.27 L 112.68,9.39 L 114.06,9.57 L 114.83,9.66 L 116.81,9.79 L 117.89,9.85 L 120.63,9.94 L 122.11,9.98 L 125.78,10.06 L 126.76,10.08 L 128.93,10.12 L 132.50,10.17 L 133.77,10.19 L 136.09,10.23 L 137.22,10.25 L 139.27,10.29 L 141.25,10.32 L 144.48,10.41 L 146.00,10.46 L 148.44,10.58 L 149.58,10.65 L 151.42,10.82 L 152.28,10.92 L 153.70,11.17 L 154.38,11.31 L 155.57,11.66 L 159.23,13.18 L 160.66,13.86 L 163.35,15.35 L 164.66,16.13 L 167.12,17.84 L 168.32,18.71 L 170.53,20.62 L 171.61,21.60 L 173.58,23.71 L 174.54,24.78 L 176.26,27.08 L 177.09,28.26 L 178.57,30.75 L 179.28,32.02 L 180.50,34.70 L 182.05,38.93 L 182.28,39.66 L 182.66,41.12 L 182.84,41.89 L 183.13,43.70 L 183.26,44.69 L 183.47,47.25 L 183.52,47.95 L 183.60,49.57 L 183.64,50.41 L 183.71,52.35 L 183.74,53.36 L 183.80,55.66 L 183.82,56.86 L 183.87,59.58 L 183.89,61.00 L 183.92,64.18 L 183.93,65.84 L 183.95,69.53 L 183.96,71.45 L 183.98,75.72 L 183.98,77.92 L 183.99,82.80 L 183.99,85.32 L 184.00,90.85 L 184.00,99.95 L 184.00,103.89 L 183.98,111.45 L 183.97,115.16 L 183.93,122.18 L 183.90,125.61 L 183.84,131.97 L 183.80,135.05 L 183.72,140.61 L 183.68,143.28 L 183.58,147.92 L 183.55,149.01 L 183.50,151.01 L 183.47,151.97 L 183.41,153.69 L 183.38,154.52 L 183.32,155.95 L 183.29,156.62 L 183.23,157.75 L 183.19,158.27 L 183.13,159.06 L 183.02,159.88 L 182.64,161.89 L 181.39,165.79 L 180.68,167.72 L 178.83,171.41 L 177.84,173.22 L 175.46,176.63 L 174.22,178.29 L 171.39,181.34 L 169.93,182.81 L 166.71,185.43 L 165.06,186.68 L 161.54,188.81 L 159.74,189.80 L 155.97,191.36 L 150.11,192.99 L 149.74,193.06 L 148.54,193.19 L 147.87,193.26 L 146.14,193.38 L 145.21,193.44 L 143.01,193.55 L 141.86,193.61 L 139.29,193.70 L 136.64,193.79 L 130.53,193.92 L 124.52,193.97 L 126.26,193.54 L 127.23,192.85 L 127.39,192.42 L 127.51,191.82 L 127.59,191.16 L 127.63,190.72 L 127.77,188.64 L 127.82,187.25 L 127.92,184.25 L 127.95,182.52 L 128.00,178.94 L 128.00,177.04 L 127.98,173.28 L 127.96,171.12 L 127.93,170.19 L 127.88,168.45 L 127.84,167.71 L 127.76,166.34 L 127.70,165.77 L 127.58,164.72 L 127.50,164.30 L 127.34,163.53 L 127.24,163.23 L 126.81,162.26 L 126.51,162.01 L 125.02,161.31 L 123.93,161.20 L 123.51,161.36 L 122.74,162.27 L 122.56,162.88 L 122.48,163.30 L 122.34,164.22 L 122.28,164.82 L 122.18,166.13 L 122.15,166.96 L 122.08,168.72 L 122.06,169.79 L 122.02,172.07 L 122.01,173.43 L 122.00,176.30 L 122.00,193.99 L 120.83,194.00 L 118.33,194.00 L 114.04,193.99 L 112.00,193.98 L 108.62,193.94 L 110.26,193.54 L 111.23,192.85 L 111.39,192.42 L 111.56,191.51 L 111.65,190.49 L 111.69,189.79 L 111.77,188.28 L 111.80,187.37 L 111.86,185.45 L 111.88,184.37 L 111.96,179.73 L 111.97,177.10 L 111.98,171.70 L 111.97,168.94 L 111.92,163.41 L 111.87,160.81 L 111.83,158.26 L 111.80,157.06 L 111.73,154.73 L 111.70,153.68 L 111.62,151.65 L 111.58,150.78 L 111.49,149.13 L 111.44,148.48 L 111.34,147.29 L 111.29,146.89 L 111.18,146.25 L 111.11,146.15 L 109.96,145.31 L 108.90,145.07 L 108.38,145.16 L 107.79,145.38 L 107.47,145.67 L 107.33,145.94 L 107.09,146.58 L 106.99,147.08 L 106.81,148.22 L 106.74,149.04 L 106.61,150.84 L 106.56,152.05 L 106.46,154.67 L 106.43,156.34 L 106.39,158.08 L 106.37,159.05 L 106.34,161.06 L 106.32,162.17 L 106.29,164.47 L 106.28,165.73 L 106.25,168.34 L 106.23,169.76 L 105.97,193.89 L 104.25,193.85 L 102.99,193.81 L 100.93,193.71 L 99.98,193.65 L 98.46,193.51 L 97.76,193.43 L 96.68,193.23 L 96.18,193.13 L 95.42,192.88 L 94.54,192.43 L 94.00,192.08 L 93.17,191.64 L 92.77,191.46 L 92.50,191.42 L 93.57,191.03 L 93.86,190.55 L 93.97,190.14 L 94.18,189.17 L 94.26,188.45 L 94.40,186.82 L 94.45,185.70 L 94.55,183.23 L 94.59,181.62 L 94.62,179.94 L 94.64,179.00 L 94.67,177.04 L 94.69,175.95 L 94.72,173.69 L 94.74,172.43 L 94.77,169.84 L 94.79,168.42 L 94.84,163.86 L 94.87,161.07 L 94.88,159.79 L 94.89,157.30 L 94.89,156.16 L 94.89,153.97 L 94.88,152.97 L 94.84,149.27 L 94.79,147.78 L 94.67,145.06 L 94.57,144.02 L 94.37,142.14 L 94.23,141.47 L 93.92,140.31 L 93.73,139.95 L 93.31,139.38 L 93.05,139.26 L 92.51,139.14 L 92.19,139.20 L 91.69,139.43 L 91.40,139.76 L 91.27,140.04 L 91.03,140.68 L 90.93,141.16 L 90.73,142.24 L 90.64,142.97 L 90.47,144.58 L 90.38,145.62 L 90.22,147.87 L 90.14,149.27 L 89.98,152.26 L 89.90,154.08 L 89.72,157.92 L 89.63,160.20 L 89.34,168.65 L 89.23,174.02 L 89.21,176.38 L 89.20,178.68 L 89.20,179.71 L 89.22,181.69 L 89.23,182.54 L 89.28,184.13 L 89.31,184.76 L 89.38,185.89 L 89.43,186.27 L 89.71,188.38 L 89.85,189.11 L 90.16,190.35 L 90.36,190.72 L 90.80,191.30 L 91.12,191.41 L 91.40,191.46 L 90.83,191.64 L 89.13,192.43 L 88.50,192.76 L 86.69,193.22 L 86.16,193.32 L 84.84,193.49 L 84.12,193.56 L 82.36,193.68 L 81.42,193.73 L 79.12,193.81 L 79.00,193.81 L 78.98,170.25 L 78.90,160.78 L 78.85,157.92 L 78.82,156.61 L 78.74,154.06 L 78.70,152.93 L 78.61,150.76 L 78.55,149.84 L 78.45,148.10 L 78.39,147.42 L 78.27,146.19 L 78.21,145.78 L 78.08,145.11 L 78.01,145.00 L 76.88,144.05 L 76.45,144.05 L 76.18,144.14 L 75.62,144.39 L 75.28,144.61 L 74.74,145.09 L 74.44,145.56 L 74.31,145.92 L 74.07,146.73 L 73.97,147.30 L 73.79,148.59 L 73.71,149.46 L 73.56,151.35 L 73.50,152.58 L 73.38,155.23 L 73.32,156.88 L 73.21,160.42 L 73.16,162.57 L 73.11,164.79 L 73.08,166.00 L 73.03,168.50 L 73.00,169.86 L 72.50,193.89 L 69.73,193.90 L 63.30,193.88 L 63.05,193.87 L 62.77,177.76 L 62.68,172.76 L 62.61,170.01 L 62.58,168.90 L 62.49,166.83 L 62.44,166.02 L 62.33,164.53 L 62.25,163.97 L 62.10,162.97 L 62.00,162.61 L 61.78,161.99 L 61.65,161.79 L 61.05,161.25 L 60.62,161.16 L 59.04,161.31 L 58.12,161.78 L 57.89,162.15 L 57.71,162.73 L 57.60,163.41 L 57.55,163.88 L 57.45,164.90 L 57.41,165.52 L 57.32,166.83 L 57.28,167.58 L 57.13,170.83 L 57.09,172.72 L 57.02,176.65 L 57.02,178.75 L 57.00,193.81 L 54.04,193.77 L 51.05,193.71 L 45.69,193.57 L 44.42,193.53 L 42.13,193.44 L 41.04,193.39 L 39.15,193.30 L 38.27,193.25 L 36.86,193.15 L 36.22,193.10 L 35.36,193.00 L 33.80,192.77 L 30.74,192.01 L 29.22,191.57 L 26.27,190.43 L 24.81,189.80 L 22.00,188.30 L 20.62,187.50 L 17.99,185.65 L 16.70,184.69 L 14.28,182.54 L 13.10,181.42 L 10.93,178.99 L 9.88,177.73 L 7.99,175.04 L 5.50,170.73 L 5.02,169.77 L 4.14,167.87 L 3.72,166.94 L 3.03,165.26 L 2.71,164.46 L 2.28,163.18 L 2.00,161.92 L 2.00,161.43 L 1.71,160.47 L 1.00,159.50 L 0.96,159.47 L 0.88,159.19 L 0.84,159.01 L 0.77,158.43 L 0.74,158.10 L 0.67,157.21 L 0.63,156.72 L 0.57,155.53 L 0.54,154.90 L 0.48,153.42 L 0.45,152.64 L 0.40,150.86 L 0.37,149.93 L 0.32,147.87 L 0.30,146.80 L 0.26,144.44 L 0.24,143.23 L 0.20,140.59 L 0.18,139.23 L 0.15,136.32 L 0.13,134.82 L 0.10,131.63 L 0.09,130.00 L 0.07,126.53 L 0.05,124.76 L 0.04,121.02 L 0.03,119.11 L 0.02,115.11 L 0.00,102.10 L 0.00,98.71 L 0.00,92.52 L 0.00,89.52 L 0.01,84.07 L 0.01,81.43 L 0.02,76.66 L 0.03,74.36 L 0.04,70.22 L 0.05,68.23 L 0.08,64.67 L 0.09,62.96 L 0.13,59.93 L 0.15,58.47 L 0.20,55.91 L 0.22,54.68 L 0.28,52.54 L 0.32,51.52 L 0.39,49.75 L 0.43,48.90 L 0.53,47.44 L 0.63,46.05 L 0.88,43.99 L 1.02,43.04 L 1.37,41.55 L 2.00,39.49 L 2.73,37.37 L 4.30,33.70 L 5.12,31.95 L 6.98,28.81 L 7.97,27.29 L 10.29,24.44 L 14.47,20.20 L 15.61,19.16 L 17.72,17.39 L 18.76,16.56 L 20.80,15.18 L 21.82,14.53 L 23.99,13.49 L 25.11,13.01 L 27.59,12.26 L 28.89,11.91 L 31.90,11.39 L 33.49,11.15 L 37.21,10.81 L 39.18,10.66 L 43.81,10.44 L 45.03,10.40 L 47.68,10.32 L 51.99,10.21 L 72.48,9.79 L 76.11,6.92 L 77.89,5.50 L 81.84,3.25 L 83.83,2.24 L 87.84,0.89 L 88.82,0.62 L 90.72,0.26 L 91.65,0.11 L 93.39,0.02 L 94.24,0.02 M 168.83,140.44 L 167.10,141.10 L 166.38,141.66 L 165.05,142.93 L 164.56,143.78 L 163.70,145.61 L 163.47,146.72 L 162.44,151.01 L 161.68,153.58 L 161.25,154.74 L 160.35,156.97 L 159.84,157.98 L 158.78,159.93 L 158.17,160.81 L 156.90,162.52 L 156.19,163.30 L 154.69,164.81 L 153.84,165.52 L 152.07,166.89 L 151.08,167.54 L 149.01,168.82 L 147.86,169.44 L 145.74,170.58 L 144.48,171.27 L 143.96,171.56 L 143.00,172.09 L 142.68,172.28 L 142.16,172.59 L 142.10,172.63 L 141.78,173.28 L 141.56,174.07 L 141.46,174.59 L 141.04,176.98 L 140.88,178.35 L 140.60,181.11 L 140.56,182.25 L 140.54,183.34 L 140.56,183.75 L 140.63,184.48 L 140.70,184.67 L 141.27,185.46 L 141.84,185.66 L 143.15,185.94 L 144.02,185.91 L 145.90,185.74 L 146.99,185.50 L 149.26,184.94 L 150.49,184.53 L 152.99,183.63 L 154.27,183.07 L 156.83,181.89 L 158.07,181.21 L 160.51,179.80 L 161.64,179.04 L 163.80,177.46 L 164.72,176.63 L 166.53,174.74 L 167.85,173.15 L 168.52,172.25 L 169.83,170.42 L 170.44,169.49 L 171.59,167.63 L 172.05,166.77 L 173.09,164.77 L 173.67,163.60 L 173.90,163.07 L 174.68,161.03 L 174.91,159.95 L 175.26,157.68 L 175.34,156.17 L 175.40,154.59 L 175.42,153.65 L 175.44,151.67 L 175.45,150.50 L 175.50,140.50 L 171.81,140.19 M 11.78,140.04 L 10.60,140.45 L 10.12,140.87 L 9.25,141.85 L 8.98,142.57 L 8.60,144.03 L 8.37,145.35 L 8.29,146.12 L 8.00,149.43 L 8.00,151.05 L 8.43,156.21 L 9.15,159.58 L 9.70,161.21 L 10.94,164.42 L 11.75,165.95 L 13.47,168.96 L 14.51,170.37 L 16.69,173.13 L 17.94,174.40 L 20.53,176.85 L 21.97,177.95 L 24.94,180.05 L 26.56,180.94 L 29.87,182.64 L 31.64,183.31 L 35.52,184.66 L 37.22,185.10 L 38.84,185.49 L 39.49,185.59 L 40.66,185.75 L 41.00,185.72 L 42.38,185.45 L 42.98,185.05 L 43.16,184.63 L 43.45,183.61 L 43.53,182.77 L 43.61,181.86 L 43.64,181.30 L 43.69,180.11 L 43.71,179.39 L 43.93,173.28 L 38.80,170.49 L 35.10,168.22 L 32.78,166.56 L 31.70,165.66 L 29.62,163.82 L 28.67,162.86 L 26.86,160.91 L 26.07,159.91 L 24.56,157.89 L 23.94,156.87 L 22.78,154.83 L 22.34,153.83 L 21.57,151.82 L 21.35,150.84 L 21.00,148.91 L 21.00,147.99 L 20.57,145.58 L 19.91,144.13 L 19.43,143.49 L 18.39,142.28 L 17.77,141.79 L 16.49,140.90 L 15.81,140.59 L 14.42,140.07 L 13.74,139.98 L 12.39,139.89 M 91.81,23.14 L 89.78,23.44 L 88.71,23.89 L 86.52,25.01 L 85.33,25.88 L 83.04,27.76 L 81.73,29.12 L 81.16,29.87 L 80.09,31.45 L 79.64,32.35 L 78.80,34.22 L 78.45,35.30 L 77.79,37.57 L 77.53,38.88 L 77.04,41.62 L 76.85,43.20 L 76.50,46.50 L 76.37,48.39 L 76.13,52.33 L 76.04,54.58 L 75.44,69.66 L 70.38,76.58 L 65.82,82.94 L 64.32,85.06 L 63.67,86.01 L 62.43,87.81 L 61.97,88.50 L 60.13,90.94 L 58.53,92.86 L 57.62,93.88 L 53.72,98.07 L 51.86,99.80 L 48.86,102.75 L 47.10,104.68 L 46.33,105.63 L 44.86,107.53 L 44.23,108.48 L 43.04,110.40 L 42.54,111.37 L 40.79,115.34 L 40.25,117.50 L 39.76,119.69 L 39.59,120.85 L 39.30,123.21 L 39.22,124.47 L 39.40,132.87 L 39.76,135.54 L 40.02,136.83 L 40.60,139.36 L 40.97,140.56 L 41.77,142.92 L 42.24,144.03 L 43.24,146.19 L 43.82,147.18 L 45.02,149.11 L 45.69,149.97 L 47.07,151.64 L 47.83,152.36 L 49.98,154.03 L 51.16,154.54 L 51.61,154.50 L 52.40,154.22 L 52.64,153.78 L 53.00,152.71 L 53.00,151.88 L 53.26,148.85 L 53.69,146.81 L 54.02,145.78 L 54.75,143.75 L 55.21,142.75 L 56.21,140.78 L 56.80,139.84 L 58.04,137.98 L 58.73,137.12 L 60.17,135.44 L 60.96,134.68 L 62.56,133.23 L 63.42,132.60 L 65.16,131.43 L 66.07,130.96 L 69.93,128.99 L 67.53,125.45 L 65.15,121.34 L 64.07,118.62 L 63.74,117.11 L 63.21,113.97 L 63.13,112.09 L 63.07,110.15 L 63.08,109.07 L 63.12,106.83 L 63.17,105.59 L 63.31,102.91 L 63.42,101.36 L 63.48,100.68 L 63.78,98.21 L 64.01,97.21 L 64.53,95.32 L 64.91,94.44 L 65.76,92.67 L 66.35,91.66 L 68.95,87.61 L 70.74,85.21 L 71.67,84.16 L 73.55,82.15 L 74.54,81.29 L 76.53,79.66 L 77.57,78.98 L 79.69,77.71 L 80.80,77.21 L 83.07,76.30 L 84.26,75.97 L 86.68,75.40 L 87.96,75.24 L 90.57,75.01 L 91.95,75.01 L 97.91,75.58 L 101.60,76.54 L 103.31,77.31 L 106.67,79.05 L 108.25,80.23 L 111.33,82.78 L 112.80,84.38 L 115.04,86.98 L 116.34,88.66 L 116.89,89.49 L 118.84,92.80 L 119.48,94.55 L 120.54,98.13 L 120.80,100.17 L 121.01,102.26 L 121.06,103.40 L 121.11,105.73 L 121.09,107.00 L 121.01,109.54 L 120.94,111.03 L 120.88,111.68 L 120.62,114.12 L 120.37,115.19 L 119.79,117.28 L 119.34,118.39 L 118.32,120.73 L 117.59,122.19 L 114.28,128.87 L 119.07,131.85 L 121.21,133.39 L 122.73,134.67 L 123.49,135.37 L 124.98,136.82 L 125.65,137.55 L 126.92,139.00 L 127.40,139.66 L 129.20,142.32 L 130.03,143.82 L 130.29,144.55 L 130.72,146.00 L 130.82,146.82 L 130.97,148.53 L 130.98,149.58 L 131.18,153.36 L 131.31,154.32 L 131.38,154.65 L 131.54,155.21 L 131.63,155.30 L 132.32,155.64 L 132.83,155.50 L 133.94,155.04 L 134.61,154.54 L 136.00,153.38 L 136.76,152.57 L 138.29,150.82 L 139.06,149.76 L 141.80,145.05 L 143.24,141.50 L 143.76,139.54 L 144.68,135.50 L 144.94,133.30 L 145.33,128.79 L 145.32,126.37 L 145.14,122.27 L 144.85,119.71 L 144.62,118.50 L 144.08,116.13 L 143.71,115.00 L 142.91,112.78 L 142.41,111.71 L 141.33,109.60 L 140.68,108.57 L 139.30,106.53 L 138.49,105.53 L 136.80,103.53 L 135.83,102.53 L 133.80,100.53 L 132.65,99.52 L 129.36,96.28 L 126.84,93.53 L 125.50,91.96 L 122.78,88.70 L 121.43,86.97 L 118.75,83.47 L 117.51,81.73 L 109.00,69.80 L 108.97,62.15 L 108.89,58.45 L 108.77,55.57 L 108.69,54.04 L 108.51,50.95 L 108.40,49.46 L 108.18,46.54 L 108.05,45.27 L 107.59,41.61 L 107.20,39.39 L 106.95,38.37 L 106.43,36.41 L 106.11,35.51 L 105.44,33.77 L 105.04,32.97 L 103.29,29.99 L 102.14,28.73 L 99.65,26.33 L 98.08,25.28 L 94.86,23.60 L 92.83,23.09 M 0.62,65.56 L 0.60,65.83 L 0.59,66.11 L 0.58,66.78 L 0.57,67.25 L 0.56,68.30 L 0.55,68.96 L 0.54,70.38 L 0.53,71.23 L 0.52,73.02 L 0.52,74.05 L 0.51,76.19 L 0.50,77.39 L 0.49,79.87 L 0.49,81.24 L 0.48,84.06 L 0.48,85.60 L 0.48,88.74 L 0.47,90.43 L 0.47,93.90 L 0.47,95.74 L 0.47,99.51 L 0.47,101.50 L 0.47,105.41 L 0.47,107.26 L 0.47,110.87 L 0.47,112.55 L 0.48,115.85 L 0.48,117.37 L 0.49,120.35 L 0.49,121.71 L 0.50,124.34 L 0.50,125.54 L 0.51,127.83 L 0.52,128.84 L 0.53,130.79 L 0.53,131.62 L 0.54,133.20 L 0.55,133.85 L 0.56,135.06 L 0.57,135.51 L 0.59,136.34 L 0.59,136.60 L 0.61,137.03 L 0.62,137.10 L 0.63,137.13 L 0.64,136.99 L 0.66,136.60 L 0.67,136.25 L 0.68,135.45 L 0.69,134.88 L 0.71,133.65 L 0.72,132.86 L 0.74,131.19 L 0.75,130.18 L 0.80,123.70 L 0.83,119.01 L 0.84,116.53 L 0.87,106.30 L 0.87,101.05 L 0.86,90.54 L 0.84,85.63 L 0.81,80.79 L 0.80,78.54 L 0.77,74.15 L 0.75,72.18 L 0.72,69.56 L 0.70,68.14 L 0.69,67.60 L 0.67,66.62 L 0.67,66.29 L 0.65,65.74 L 0.64,65.62 L 0.62,65.48 M 91.17,81.98 L 87.58,82.29 L 85.92,82.71 L 82.71,83.74 L 81.37,84.52 L 78.63,86.52 L 76.86,88.17 L 76.03,89.12 L 74.41,91.10 L 73.67,92.18 L 72.24,94.38 L 71.62,95.53 L 70.45,97.84 L 69.98,99.01 L 69.12,101.34 L 68.83,102.48 L 68.34,104.71 L 68.26,105.76 L 68.19,107.80 L 68.34,108.70 L 69.10,111.79 L 69.87,113.88 L 70.36,114.93 L 71.42,117.00 L 72.04,118.01 L 73.35,120.01 L 74.08,120.96 L 75.58,122.82 L 76.40,123.68 L 78.06,125.35 L 78.93,126.08 L 80.70,127.49 L 81.61,128.07 L 83.43,129.15 L 84.36,129.55 L 86.86,130.47 L 88.18,130.70 L 90.85,131.03 L 92.22,130.98 L 94.96,130.75 L 96.32,130.44 L 99.05,129.70 L 100.37,129.15 L 102.99,127.93 L 104.23,127.15 L 106.65,125.49 L 107.76,124.51 L 109.90,122.44 L 110.83,121.27 L 112.60,118.84 L 113.31,117.50 L 114.17,115.43 L 114.63,113.84 L 114.81,112.97 L 115.34,109.33 L 115.37,107.39 L 115.27,103.51 L 114.98,101.69 L 114.65,99.90 L 114.43,99.08 L 113.94,97.48 L 113.63,96.79 L 111.40,92.82 L 109.51,90.27 L 108.43,89.12 L 106.20,86.92 L 105.03,86.02 L 102.67,84.39 L 101.51,83.86 L 96.55,82.36 L 92.97,81.93 M 14.28,88.18 L 13.33,88.77 L 13.09,89.19 L 13.00,89.49 L 12.82,90.17 L 12.74,90.63 L 12.60,91.63 L 12.55,92.28 L 12.44,93.68 L 12.39,94.55 L 12.31,96.42 L 12.27,97.54 L 12.19,99.94 L 12.15,101.36 L 12.08,104.19 L 12.06,105.36 L 12.01,107.55 L 12.01,108.43 L 12.01,110.05 L 12.03,110.68 L 12.08,111.81 L 12.13,112.23 L 12.25,112.96 L 12.33,113.20 L 12.52,113.60 L 12.64,113.71 L 13.22,113.91 L 13.65,113.83 L 14.65,113.26 L 14.89,112.86 L 14.99,112.56 L 15.17,111.90 L 15.25,111.45 L 15.38,110.46 L 15.43,109.81 L 15.53,108.42 L 15.58,107.54 L 15.65,105.67 L 15.68,104.52 L 15.75,102.10 L 15.78,100.66 L 15.86,96.71 L 15.89,94.55 L 15.89,93.67 L 15.88,92.06 L 15.85,91.43 L 15.79,90.28 L 15.74,89.86 L 15.63,89.12 L 15.55,88.87 L 15.36,88.45 L 15.24,88.34 L 14.69,88.11 M 172.18,87.00 L 171.04,87.59 L 170.00,88.45 L 169.50,89.00 L 168.57,90.39 L 168.19,91.56 L 168.11,92.44 L 168.04,93.37 L 168.03,93.94 L 168.02,95.16 L 168.04,95.89 L 168.09,97.45 L 168.13,98.38 L 168.23,100.34 L 168.29,101.50 L 168.58,105.66 L 168.79,108.18 L 168.90,109.23 L 169.13,111.16 L 169.24,111.82 L 169.34,112.42 L 169.39,112.63 L 169.49,112.99 L 169.54,113.06 L 170.01,113.56 L 170.33,113.68 L 171.02,113.83 L 171.34,113.72 L 171.59,113.35 L 171.76,112.82 L 171.83,112.44 L 171.98,111.60 L 172.05,111.08 L 172.19,109.98 L 172.25,109.35 L 172.49,106.63 L 172.58,105.06 L 172.74,101.84 L 172.80,100.19 L 172.88,96.88 L 172.88,95.33 L 172.87,92.35 L 172.82,91.11 L 172.77,89.93 L 172.73,89.43 L 172.65,88.49 L 172.60,88.13 L 172.48,87.49 L 172.42,87.30 L 172.27,87.00 M 94.29,97.38 L 95.66,97.99 L 96.23,98.43 L 97.30,99.40 L 97.71,99.99 L 98.44,101.22 L 98.67,101.90 L 99.04,103.29 L 99.08,104.00 L 99.04,105.44 L 98.86,106.15 L 98.39,107.53 L 97.98,108.17 L 97.03,109.41 L 96.37,109.93 L 94.71,111.02 L 93.80,111.39 L 91.98,112.00 L 91.32,112.00 L 88.83,111.29 L 87.18,110.21 L 86.47,109.47 L 85.13,107.90 L 84.70,107.05 L 84.00,105.31 L 84.00,104.50 L 84.71,101.82 L 85.80,100.12 L 86.55,99.41 L 88.19,98.09 L 89.11,97.67 L 91.01,97.00 L 91.95,97.00 M 23.00,94.00 L 21.93,94.20 L 21.46,94.64 L 21.32,95.11 L 21.10,96.26 L 21.06,97.20 L 21.02,98.21 L 21.01,98.83 L 21.00,100.14 L 21.00,100.92 L 21.18,106.27 L 21.30,107.72 L 21.37,108.26 L 21.52,109.20 L 21.61,109.42 L 22.08,110.25 L 22.44,110.54 L 23.22,111.00 L 23.61,111.00 L 24.28,110.60 L 24.60,109.87 L 24.71,109.22 L 24.89,107.72 L 24.93,106.61 L 24.97,105.44 L 24.98,104.76 L 25.00,103.32 L 25.00,102.50 L 24.99,99.89 L 24.97,98.45 L 24.95,97.87 L 24.89,96.79 L 24.85,96.37 L 24.76,95.60 L 24.69,95.31 L 24.36,94.41 L 24.09,94.23 L 23.46,94.00 M 146.02,72.12 L 145.30,72.44 L 144.88,72.86 L 144.00,73.88 L 143.50,74.64 L 142.60,76.10 L 142.30,76.78 L 142.29,77.02 L 142.37,77.45 L 142.55,77.63 L 143.01,77.99 L 143.38,78.19 L 144.52,79.28 L 145.00,80.19 L 145.00,80.61 L 145.11,81.33 L 145.29,81.49 L 145.72,81.67 L 146.00,81.50 L 146.71,80.67 L 147.00,79.91 L 147.00,79.55 L 147.51,78.41 L 148.25,77.73 L 148.72,77.55 L 149.70,76.88 L 149.72,76.41 L 149.40,76.20 L 148.47,75.19 L 147.89,74.23 L 147.71,73.75 L 146.95,72.42 L 146.36,72.05 M 43.47,71.73 L 43.13,71.95 L 42.50,72.49 L 42.36,72.83 L 42.22,73.54 L 42.43,73.89 L 42.89,74.47 L 43.18,74.67 L 43.76,75.00 L 44.00,75.00 L 44.93,74.66 L 45.42,74.16 L 45.56,73.84 L 45.77,73.17 L 45.74,72.84 L 45.59,72.19 L 45.35,71.95 L 44.28,71.56 M 29.11,38.21 L 28.36,38.61 L 27.96,39.11 L 27.81,39.50 L 27.52,40.37 L 27.42,40.95 L 27.24,42.22 L 27.18,43.01 L 26.45,46.72 L 25.51,48.77 L 24.78,49.60 L 23.16,51.15 L 22.08,51.77 L 19.72,52.90 L 18.24,53.33 L 15.11,54.50 L 14.35,54.89 L 14.11,55.07 L 13.72,55.40 L 13.69,55.53 L 14.05,55.98 L 14.68,56.34 L 15.16,56.54 L 16.21,56.93 L 16.85,57.12 L 18.20,57.50 L 18.95,57.66 L 22.88,58.94 L 24.94,60.06 L 25.70,60.76 L 27.01,62.26 L 27.39,63.14 L 27.97,65.01 L 27.98,66.08 L 28.18,68.10 L 28.46,69.13 L 28.64,69.31 L 29.22,69.71 L 29.49,69.69 L 30.03,69.51 L 30.25,69.23 L 30.66,68.56 L 30.79,68.07 L 31.00,67.01 L 31.00,66.36 L 31.22,65.12 L 31.57,64.22 L 31.83,63.75 L 33.07,61.87 L 33.89,61.02 L 35.61,59.41 L 36.49,58.87 L 37.38,58.38 L 37.80,58.23 L 38.62,58.00 L 38.99,58.00 L 41.15,57.70 L 42.51,57.23 L 43.08,56.91 L 44.13,56.21 L 44.47,55.81 L 45.00,54.99 L 45.00,54.58 L 44.69,53.97 L 44.20,53.59 L 43.82,53.42 L 42.98,53.08 L 42.45,52.94 L 41.30,52.67 L 40.64,52.57 L 36.85,51.48 L 34.82,50.30 L 34.05,49.47 L 32.66,47.65 L 32.20,46.49 L 31.42,44.01 L 31.25,42.52 L 30.92,40.31 L 30.66,39.28 L 30.50,38.95 L 30.14,38.40 L 29.92,38.29 L 29.42,38.15 M 135.16,18.03 L 134.21,18.05 L 133.85,18.08 L 132.65,18.26 L 132.37,18.45 L 132.00,18.88 L 132.00,19.19 L 132.29,20.49 L 132.75,21.60 L 133.11,22.27 L 133.89,23.67 L 134.39,24.46 L 135.46,26.09 L 136.09,26.98 L 138.82,30.72 L 140.45,32.76 L 143.85,36.92 L 145.69,39.03 L 149.44,43.24 L 151.32,45.23 L 155.07,49.09 L 156.83,50.77 L 158.56,52.40 L 159.38,53.12 L 160.98,54.51 L 161.72,55.09 L 163.15,56.19 L 163.78,56.62 L 164.99,57.38 L 165.50,57.62 L 168.17,58.80 L 169.32,59.18 L 171.48,59.79 L 172.34,59.88 L 173.91,59.92 L 174.46,59.73 L 175.37,59.19 L 175.56,58.70 L 175.78,57.19 L 175.79,55.70 L 175.73,54.78 L 175.58,52.83 L 175.45,51.74 L 175.17,49.51 L 174.99,48.35 L 174.16,43.67 L 173.67,41.61 L 173.16,39.63 L 172.90,38.80 L 172.37,37.27 L 172.11,36.73 L 169.31,31.93 L 167.10,29.00 L 165.86,27.69 L 163.30,25.21 L 161.92,24.17 L 159.11,22.25 L 157.65,21.53 L 154.59,20.23 L 152.53,19.58 L 151.37,19.34 L 148.91,18.90 L 147.41,18.74 L 145.86,18.58 L 144.99,18.51 L 143.19,18.38 L 142.18,18.32 L 139.26,18.15 L 137.62,18.07 L 136.94,18.05 L 135.67,18.02 M 132.42,38.00 L 131.29,38.43 L 131.00,39.10 L 131.07,39.61 L 131.33,40.72 L 131.65,41.41 L 132.40,42.86 L 132.94,43.68 L 134.12,45.38 L 134.85,46.29 L 136.40,48.14 L 137.29,49.09 L 141.15,52.93 L 143.39,54.71 L 145.29,56.12 L 146.19,56.63 L 147.91,57.54 L 148.62,57.78 L 149.93,58.10 L 150.35,58.02 L 150.72,57.90 L 150.83,57.77 L 151.00,57.47 L 151.00,57.25 L 150.80,56.79 L 150.49,56.32 L 150.25,56.01 L 149.11,54.56 L 148.29,53.63 L 146.52,51.63 L 145.49,50.52 L 143.35,48.24 L 142.23,47.08 L 139.99,44.78 L 138.91,43.71 L 136.81,41.65 L 135.91,40.80 L 134.22,39.26 L 133.62,38.77 L 133.06,38.33 L 132.86,38.20 L 132.51,38.00 M 88.81,8.63 L 87.48,9.08 L 84.82,10.19 L 83.49,11.09 L 80.83,13.11 L 79.47,14.47 L 77.03,17.24 L 75.48,19.33 L 74.75,20.45 L 72.00,25.13 L 70.96,27.53 L 69.97,29.91 L 69.59,31.06 L 68.89,33.32 L 68.66,34.37 L 68.30,36.41 L 68.26,37.30 L 68.28,38.99 L 68.45,39.67 L 68.67,40.44 L 68.80,40.72 L 69.04,41.21 L 69.18,41.35 L 69.44,41.55 L 69.58,41.55 L 69.86,41.49 L 70.00,41.35 L 70.56,40.56 L 70.82,39.79 L 71.32,37.99 L 71.53,36.74 L 72.58,32.70 L 73.61,30.10 L 74.28,28.87 L 75.69,26.46 L 76.52,25.35 L 78.26,23.20 L 79.22,22.25 L 81.20,20.43 L 82.27,19.66 L 84.43,18.24 L 85.56,17.70 L 87.84,16.73 L 89.00,16.44 L 91.33,16.00 L 92.49,16.00 L 95.60,16.37 L 97.68,16.98 L 98.71,17.44 L 100.76,18.46 L 101.75,19.12 L 103.69,20.51 L 104.61,21.33 L 106.40,23.04 L 107.22,24.00 L 108.79,25.98 L 109.48,27.05 L 110.78,29.24 L 111.30,30.40 L 112.27,32.75 L 112.61,33.97 L 113.80,38.17 L 114.12,39.28 L 114.24,39.68 L 114.45,40.36 L 114.49,40.50 L 114.64,40.45 L 114.72,39.98 L 114.76,39.56 L 114.84,38.62 L 114.86,38.00 L 114.91,36.68 L 114.92,35.91 L 114.54,31.76 L 113.87,28.93 L 113.36,27.52 L 112.22,24.70 L 111.49,23.33 L 109.95,20.63 L 109.06,19.37 L 107.19,16.90 L 106.16,15.79 L 104.05,13.65 L 102.92,12.75 L 100.64,11.06 L 99.46,10.43 L 97.08,9.29 L 95.88,8.97 L 91.56,8.38 M 47.42,29.32 L 47.13,29.80 L 47.12,30.20 L 47.20,31.07 L 47.41,31.62 L 47.66,32.20 L 47.78,32.38 L 48.03,32.68 L 48.17,32.72 L 48.47,32.73 L 48.64,32.64 L 49.01,32.39 L 49.23,32.17 L 49.90,31.00 L 49.67,30.27 L 49.22,29.82 L 48.17,29.14 L 47.61,29.14 M 91.37,0.18 L 90.75,0.29 L 90.27,0.41 L 90.23,0.46 L 90.28,0.56 L 90.48,0.60 L 91.01,0.67 L 91.43,0.69 L 92.38,0.73 L 93.00,0.73 L 94.57,0.69 L 95.31,0.64 L 95.52,0.60 L 95.81,0.51 L 95.77,0.46 L 95.56,0.35 L 95.25,0.29 L 93.00,0.12 Z" fill="rgba(5,4,21,1)"/>
<path d="M 120.18,96.88 L 120.63,98.42 L 121.42,101.51 L 121.65,103.09 L 122.00,106.27 L 122.00,114.56 L 127.85,119.70 L 129.66,121.32 L 130.66,122.26 L 131.07,122.68 L 132.52,124.26 L 133.00,125.03 L 133.83,126.61 L 134.13,127.59 L 134.69,129.71 L 134.99,131.17 L 136.29,136.38 L 136.75,137.91 L 136.97,138.53 L 137.39,139.66 L 137.57,140.00 L 138.64,142.31 L 139.27,143.85 L 139.43,144.36 L 139.79,145.22 L 140.04,145.55 L 140.19,145.61 L 140.51,145.64 L 140.71,145.55 L 141.15,145.29 L 141.42,145.06 L 142.17,144.13 L 141.80,145.05 L 139.06,149.76 L 138.29,150.82 L 136.76,152.57 L 136.00,153.38 L 134.61,154.54 L 133.94,155.04 L 132.83,155.50 L 132.32,155.64 L 131.63,155.30 L 131.54,155.21 L 131.38,154.65 L 131.31,154.32 L 131.18,153.36 L 130.98,149.58 L 130.97,148.53 L 130.82,146.82 L 130.72,146.00 L 130.29,144.55 L 130.03,143.82 L 129.20,142.32 L 127.40,139.66 L 126.92,139.00 L 125.65,137.55 L 124.98,136.82 L 123.49,135.37 L 122.73,134.67 L 121.21,133.39 L 119.07,131.85 L 114.28,128.87 L 117.59,122.19 L 118.32,120.73 L 119.34,118.39 L 119.79,117.28 L 120.37,115.19 L 120.62,114.12 L 120.88,111.68 L 120.94,111.03 L 121.01,109.54 L 121.09,107.00 L 121.11,105.73 L 121.06,103.40 L 121.01,102.26 L 120.80,100.17 L 120.54,98.13 L 120.14,96.78 M 53.00,151.88 L 53.00,152.71 L 52.64,153.78 L 52.40,154.22 L 52.02,154.35 L 52.18,154.00 L 52.53,153.09 L 52.71,152.44 L 53.07,151.01 L 53.08,150.96 M 41.97,143.35 L 42.91,145.46 L 43.46,146.44 L 44.60,148.36 L 45.24,149.25 L 46.58,150.97 L 47.32,151.75 L 48.06,152.53 L 47.83,152.36 L 47.07,151.64 L 45.69,149.97 L 45.02,149.11 L 43.82,147.18 L 43.24,146.19 L 42.24,144.03 L 41.77,142.92 L 41.65,142.59 M 55.53,142.13 L 55.56,142.05 L 55.78,141.63 M 60.96,134.68 L 60.17,135.44 L 58.73,137.12 L 58.04,137.98 L 56.80,139.84 L 56.40,140.48 L 57.20,138.99 L 58.26,137.61 L 60.52,134.94 L 61.84,133.82 L 62.32,133.44 M 0.87,106.30 L 0.84,116.53 L 0.83,119.01 L 0.80,123.70 L 0.75,130.18 L 0.74,131.19 L 0.72,132.86 L 0.71,133.65 L 0.69,134.88 L 0.68,135.45 L 0.67,136.25 L 0.66,136.60 L 0.64,136.99 L 0.63,137.13 L 0.62,137.10 L 0.61,137.03 L 0.59,136.60 L 0.59,136.34 L 0.57,135.51 L 0.56,135.06 L 0.55,133.85 L 0.54,133.20 L 0.53,131.62 L 0.53,130.79 L 0.52,128.84 L 0.51,127.83 L 0.50,125.54 L 0.50,124.34 L 0.49,121.71 L 0.49,120.35 L 0.48,117.37 L 0.48,115.85 L 0.47,112.55 L 0.47,110.87 L 0.47,110.42 L 0.49,111.39 L 0.51,111.79 L 0.54,112.47 L 0.56,112.63 L 0.60,112.85 L 0.62,112.77 L 0.66,112.48 L 0.68,112.15 L 0.72,111.35 L 0.74,110.75 L 0.85,106.66 L 0.87,105.08 M 144.68,135.50 L 144.52,136.20 L 144.76,134.79 M 39.84,135.95 L 39.76,135.54 L 39.54,133.94 M 63.48,132.56 L 64.57,131.73 L 65.16,131.43 M 145.33,128.79 L 145.12,131.20 L 145.33,128.21 M 40.25,117.52 L 39.76,119.72 L 39.59,120.89 L 39.30,123.27 L 39.30,123.21 L 39.59,120.85 L 39.76,119.69 L 40.25,117.50 L 40.71,115.66 M 145.14,122.27 L 145.16,122.73 L 145.14,122.21 M 144.85,119.71 L 144.91,120.18 L 144.84,119.64 M 144.08,116.13 L 144.38,117.45 L 144.01,115.93 M 135.83,102.53 L 136.80,103.53 L 138.49,105.53 L 139.30,106.53 L 140.68,108.57 L 141.33,109.60 L 142.41,111.71 L 142.91,112.78 L 143.71,115.00 L 143.95,115.72 L 143.63,114.79 L 142.82,112.60 L 142.31,111.55 L 141.23,109.46 L 140.58,108.45 L 139.20,106.43 L 138.40,105.44 L 136.73,103.46 L 135.77,102.48 L 133.78,100.51 L 132.65,99.52 L 133.80,100.53 M 40.79,115.36 L 40.79,115.34 L 41.86,112.93 M 15.85,91.43 L 15.88,92.06 L 15.89,93.67 L 15.89,94.55 L 15.86,96.71 L 15.78,100.66 L 15.75,102.10 L 15.68,104.52 L 15.65,105.67 L 15.58,107.54 L 15.53,108.42 L 15.43,109.81 L 15.38,110.46 L 15.25,111.45 L 15.17,111.90 L 14.99,112.56 L 14.89,112.86 L 14.65,113.26 L 13.65,113.83 L 13.22,113.91 L 12.64,113.71 L 12.52,113.60 L 12.33,113.20 L 12.25,112.96 L 12.13,112.23 L 12.08,111.81 L 12.03,110.68 L 12.01,110.05 L 12.01,108.43 L 12.01,107.55 L 12.06,105.36 L 12.08,104.19 L 12.15,101.36 L 12.19,99.94 L 12.27,97.54 L 12.31,96.42 L 12.39,94.55 L 12.44,93.68 L 12.55,92.28 L 12.60,91.63 L 12.73,90.73 L 12.72,91.03 L 12.75,92.19 L 12.82,92.89 L 12.96,94.12 L 13.04,94.61 L 13.22,95.52 L 13.33,95.85 L 13.54,96.43 L 13.66,96.59 L 13.90,96.84 L 14.02,96.84 L 14.27,96.77 L 14.40,96.60 L 14.66,96.20 L 14.79,95.87 L 15.04,95.14 L 15.16,94.65 L 15.40,93.59 L 15.51,92.93 L 15.81,90.53 M 172.73,89.43 L 172.77,89.93 L 172.82,91.11 L 172.87,92.35 L 172.88,95.33 L 172.88,96.88 L 172.80,100.19 L 172.74,101.84 L 172.58,105.06 L 172.49,106.63 L 172.25,109.35 L 172.19,109.98 L 172.05,111.08 L 171.98,111.60 L 171.83,112.44 L 171.76,112.82 L 171.59,113.35 L 171.34,113.72 L 171.02,113.83 L 170.33,113.68 L 170.01,113.56 L 169.54,113.06 L 169.49,112.99 L 169.39,112.63 L 169.34,112.42 L 169.24,111.82 L 169.13,111.16 L 168.90,109.23 L 168.79,108.18 L 168.71,107.26 L 168.87,107.94 L 169.01,108.33 L 169.32,109.02 L 169.50,109.26 L 169.89,109.65 L 170.12,109.74 L 170.60,109.84 L 170.88,109.79 L 171.72,109.19 L 172.11,108.28 L 172.25,107.44 L 172.38,106.53 L 172.43,105.96 L 172.53,104.73 L 172.58,103.98 L 172.65,102.38 L 172.69,101.42 L 172.75,99.41 L 172.78,98.24 L 172.84,93.87 L 172.81,91.32 L 172.78,90.30 L 172.73,89.37 M 0.64,65.62 L 0.65,65.74 L 0.67,66.29 L 0.67,66.62 L 0.69,67.60 L 0.70,68.14 L 0.72,69.56 L 0.75,72.18 L 0.77,74.15 L 0.80,78.54 L 0.81,80.79 L 0.84,85.63 L 0.86,90.54 L 0.86,98.32 L 0.85,97.34 L 0.79,94.45 L 0.74,93.25 L 0.68,91.85 L 0.64,91.31 L 0.62,91.23 L 0.58,91.20 L 0.56,91.37 L 0.52,91.81 L 0.51,92.21 L 0.48,93.12 L 0.47,93.60 L 0.47,90.43 L 0.48,88.74 L 0.48,85.60 L 0.48,84.06 L 0.49,81.24 L 0.49,79.87 L 0.50,77.39 L 0.51,76.19 L 0.52,74.05 L 0.52,73.02 L 0.53,71.23 L 0.54,70.38 L 0.55,68.96 L 0.56,68.30 L 0.57,67.25 L 0.58,66.78 L 0.59,66.11 L 0.60,65.83 L 0.62,65.56 L 0.62,65.48 M 168.52,90.72 L 168.38,91.36 L 168.15,92.76 L 168.09,93.69 L 168.02,95.21 L 168.02,95.16 L 168.03,93.94 L 168.04,93.37 L 168.11,92.44 L 168.19,91.56 L 168.57,90.39 L 168.86,89.96 M 71.67,84.16 L 70.74,85.21 L 68.95,87.61 L 66.35,91.66 L 65.92,92.40 L 66.86,90.42 L 67.97,88.77 L 69.15,87.11 L 69.84,86.24 L 71.28,84.47 L 72.11,83.53 L 73.47,82.25 M 172.29,87.04 L 171.33,87.49 L 170.33,88.20 L 169.83,88.65 L 169.22,89.42 L 169.50,89.00 L 170.00,88.45 L 171.04,87.59 L 172.18,87.00 L 172.27,87.00 M 113.13,84.63 L 114.10,85.85 L 114.36,86.19 L 112.80,84.38 L 111.87,83.36 M 107.41,79.59 L 109.84,81.40 L 110.95,82.45 L 111.09,82.58 L 108.25,80.23 L 107.32,79.54 M 74.54,81.29 L 73.72,82.01 L 75.13,80.67 L 76.40,79.76 M 77.57,78.98 L 76.71,79.54 L 77.40,79.04 L 78.12,78.65 M 102.22,76.75 L 103.52,77.36 L 104.57,77.96 L 103.31,77.31 L 101.75,76.60 M 95.25,75.10 L 98.10,75.51 L 99.48,75.89 L 101.24,76.44 L 97.91,75.58 L 91.95,75.01 L 90.57,75.01 L 88.67,75.18 L 89.50,75.05 L 90.93,74.98 L 93.82,74.95 M 71.64,26.07 L 70.58,28.67 L 70.21,29.96 L 69.57,32.53 L 69.43,33.76 L 68.91,38.50 L 72.06,32.50 L 74.05,29.28 L 73.61,30.10 L 72.58,32.70 L 71.53,36.74 L 71.32,37.99 L 70.82,39.79 L 70.56,40.56 L 70.00,41.35 L 69.86,41.49 L 69.58,41.55 L 69.44,41.55 L 69.18,41.35 L 69.04,41.21 L 68.80,40.72 L 68.67,40.44 L 68.45,39.67 L 68.28,38.99 L 68.26,37.30 L 68.30,36.41 L 68.66,34.37 L 68.89,33.32 L 69.59,31.06 L 69.97,29.91 L 70.96,27.53 L 72.00,25.13 L 72.18,24.84 M 114.92,35.91 L 114.91,36.68 L 114.86,38.00 L 114.84,38.62 L 114.76,39.56 L 114.72,39.98 L 114.64,40.45 L 114.49,40.50 L 114.45,40.36 L 114.33,39.97 L 114.37,39.80 L 114.43,39.45 L 114.53,38.63 L 114.58,38.07 L 114.69,36.83 L 114.74,36.09 L 114.78,34.38 M 112.90,34.43 L 113.32,35.86 L 114.04,38.67 L 114.10,39.22 L 113.80,38.17 L 112.61,33.97 L 112.34,33.02 M 109.06,19.37 L 109.95,20.63 L 111.49,23.33 L 112.22,24.70 L 112.43,25.21 L 112.06,24.47 L 109.71,20.34 L 108.74,18.95 M 105.99,22.51 L 107.42,24.17 L 107.87,24.82 L 107.22,24.00 L 106.40,23.04 L 104.61,21.33 L 104.41,21.15 M 98.43,17.29 L 101.51,18.81 L 103.02,19.96 L 103.51,20.38 L 101.75,19.12 L 100.76,18.46 L 98.71,17.44 L 97.81,17.03 M 82.75,19.35 L 82.94,19.18 L 83.32,18.97 M 106.16,15.79 L 107.19,16.90 L 107.43,17.22 L 107.03,16.75 L 106.00,15.62 M 96.88,16.65 L 97.64,16.96 L 96.15,16.53 M 87.29,16.96 L 87.50,16.86 L 87.57,16.84 M 93.75,16.14 L 94.02,16.18 L 93.42,16.11 M 102.92,12.75 L 104.05,13.65 L 104.51,14.12 L 104.08,13.74 L 102.37,12.34 M 79.99,13.95 L 80.83,13.11 L 81.48,12.62 M 95.88,8.97 L 97.08,9.29 L 99.46,10.43 L 100.64,11.06 L 101.73,11.87 L 100.94,11.37 L 98.77,10.11 L 97.66,9.66 L 95.60,8.93 M 84.69,10.31 L 83.63,11.00 L 84.82,10.19 L 87.23,9.18 M 88.77,8.65 L 88.54,8.72 L 88.81,8.63 L 89.97,8.53 M 91.61,8.39 L 91.34,8.40 L 91.56,8.38 M 95.25,0.29 L 95.56,0.35 L 95.77,0.46 L 95.81,0.51 L 95.52,0.60 L 95.31,0.64 L 94.57,0.69 L 93.00,0.73 L 92.38,0.73 L 91.43,0.69 L 91.01,0.67 L 90.48,0.60 L 90.28,0.56 L 90.23,0.46 L 90.27,0.41 L 90.75,0.29 L 91.37,0.18 L 93.00,0.12 Z" fill="rgba(45,97,164,1)"/>
<path d="M 79.00,194.00 L 75.75,194.00 L 72.50,194.00 L 72.51,193.41 L 72.78,193.64 L 73.04,193.72 L 73.63,193.88 L 74.04,193.93 L 74.91,194.00 L 75.44,194.00 L 77.95,193.71 L 78.54,193.51 L 78.72,193.39 L 79.00,193.14 M 122.30,164.65 L 122.63,165.23 L 123.41,166.41 L 124.00,167.00 L 125.00,168.29 L 125.46,169.31 L 125.61,169.98 L 125.85,171.45 L 125.92,172.43 L 126.00,174.58 L 126.00,176.00 L 126.03,177.94 L 126.08,178.78 L 126.20,180.38 L 126.29,181.00 L 126.48,182.12 L 126.60,182.47 L 126.86,183.00 L 127.00,183.00 L 127.41,182.29 L 127.64,181.15 L 127.72,180.28 L 127.88,178.37 L 127.93,177.16 L 127.99,174.91 L 128.00,177.04 L 128.00,178.94 L 127.95,182.52 L 127.92,184.25 L 127.82,187.25 L 127.77,188.64 L 127.63,190.72 L 127.59,191.16 L 127.51,191.82 L 127.39,192.42 L 127.23,192.85 L 126.26,193.54 L 124.39,194.00 L 122.00,194.00 L 122.00,176.30 L 122.01,173.43 L 122.02,172.07 L 122.06,169.79 L 122.08,168.72 L 122.15,166.96 L 122.18,166.13 L 122.28,164.82 L 122.30,164.63 M 109.96,145.31 L 111.11,146.15 L 111.18,146.25 L 111.29,146.89 L 111.34,147.29 L 111.44,148.48 L 111.49,149.13 L 111.58,150.78 L 111.62,151.65 L 111.70,153.68 L 111.73,154.73 L 111.80,157.06 L 111.83,158.26 L 111.87,160.81 L 111.92,163.41 L 111.97,168.94 L 111.98,171.70 L 111.97,177.10 L 111.96,179.73 L 111.88,184.37 L 111.86,185.45 L 111.80,187.37 L 111.77,188.28 L 111.69,189.79 L 111.65,190.49 L 111.56,191.51 L 111.39,192.42 L 111.23,192.85 L 110.26,193.54 L 108.38,194.00 L 105.96,194.00 L 106.23,169.76 L 106.25,168.34 L 106.28,165.73 L 106.29,164.47 L 106.32,162.17 L 106.34,161.06 L 106.37,159.05 L 106.39,158.08 L 106.43,156.34 L 106.46,154.67 L 106.56,152.05 L 106.61,150.84 L 106.74,149.04 L 106.81,148.22 L 106.99,147.08 L 107.09,146.58 L 107.33,145.94 L 107.47,145.67 L 107.79,145.38 L 108.38,145.16 L 108.90,145.07 M 60.28,165.64 L 60.46,165.93 L 61.10,166.77 L 61.40,166.92 L 61.99,167.05 L 62.23,166.88 L 62.48,166.60 L 62.49,166.83 L 62.58,168.90 L 62.61,170.01 L 62.68,172.76 L 62.77,177.76 L 63.05,194.00 L 57.00,194.00 L 57.02,178.75 L 57.02,176.65 L 57.09,172.72 L 57.13,170.83 L 57.28,167.58 L 57.32,166.83 L 57.41,165.52 L 57.41,165.42 L 57.42,165.42 L 58.01,165.55 L 58.40,165.40 L 59.58,165.34 M 78.70,152.93 L 78.74,154.06 L 78.82,156.61 L 78.85,157.92 L 78.90,160.78 L 78.98,170.25 L 79.00,193.00 L 78.77,192.61 L 78.40,192.38 L 78.14,192.29 L 76.87,192.00 L 76.06,192.00 L 73.80,192.29 L 73.20,192.49 L 72.97,192.61 L 72.58,192.86 L 72.52,192.97 L 73.00,169.86 L 73.03,168.50 L 73.08,166.00 L 73.11,164.79 L 73.16,162.57 L 73.21,160.42 L 73.32,156.88 L 73.38,155.23 L 73.46,153.29 L 73.50,153.36 L 73.82,153.89 L 74.04,154.03 L 74.87,154.35 L 75.43,154.40 L 76.59,154.40 L 77.11,154.26 L 78.00,153.84 L 78.44,153.40 L 78.58,153.08 L 78.69,152.77 M 126.81,162.26 L 127.24,163.23 L 127.34,163.53 L 127.50,164.30 L 127.58,164.72 L 127.70,165.77 L 127.76,166.34 L 127.79,166.89 L 127.78,166.77 L 127.60,165.18 L 127.48,164.54 L 127.21,163.35 L 127.04,162.90 L 126.71,162.17 M 58.13,161.82 L 58.01,161.96 L 58.12,161.78 L 58.42,161.63 M 61.05,161.25 L 61.58,161.72 L 61.10,161.37 L 60.77,161.26 L 60.44,161.18 L 60.62,161.16 M 116.09,88.36 L 117.23,90.29 L 119.36,94.29 L 120.16,96.51 L 121.14,99.03 L 121.80,100.51 L 122.10,101.09 L 122.69,102.16 L 122.93,102.49 L 123.38,103.00 L 123.52,103.00 L 124.44,103.49 L 125.49,104.27 L 126.18,104.84 L 127.65,106.08 L 128.48,106.82 L 130.21,108.39 L 131.11,109.25 L 134.09,112.23 L 135.75,114.07 L 136.44,114.95 L 137.71,116.70 L 138.22,117.58 L 139.15,119.35 L 139.50,120.28 L 140.12,122.18 L 140.33,123.21 L 140.69,125.35 L 140.79,126.54 L 140.92,129.02 L 140.92,130.42 L 140.87,133.36 L 140.78,135.03 L 140.63,139.50 L 140.63,141.76 L 140.68,142.56 L 140.81,143.92 L 140.93,144.27 L 141.19,144.77 L 141.38,144.71 L 142.11,144.11 L 142.56,143.41 L 142.22,144.07 L 141.42,145.06 L 141.15,145.29 L 140.71,145.55 L 140.51,145.64 L 140.19,145.61 L 140.04,145.55 L 139.79,145.22 L 139.43,144.36 L 139.27,143.85 L 138.64,142.31 L 137.57,140.00 L 137.39,139.66 L 136.97,138.53 L 136.75,137.91 L 136.29,136.38 L 134.99,131.17 L 134.69,129.71 L 134.13,127.59 L 133.83,126.61 L 133.00,125.03 L 132.52,124.26 L 131.07,122.68 L 130.66,122.26 L 129.66,121.32 L 127.85,119.70 L 122.00,114.56 L 122.00,106.27 L 121.65,103.09 L 121.42,101.51 L 120.63,98.42 L 120.18,96.88 L 118.99,93.92 L 118.35,92.47 L 116.80,89.70 L 115.98,88.35 L 114.76,86.72 M 74.64,145.25 L 74.74,145.09 L 75.23,144.65 M 77.06,144.19 L 76.84,144.16 L 75.99,144.23 L 76.18,144.14 L 76.45,144.05 L 76.88,144.05 M 142.96,142.49 L 142.72,143.10 L 142.59,143.35 L 142.80,142.87 L 142.99,142.40 M 143.42,141.18 L 143.41,141.22 L 143.45,141.10 M 144.22,137.95 L 144.04,138.83 L 143.95,139.19 L 144.03,138.83 L 144.60,135.75 M 144.56,118.22 L 144.81,119.40 L 145.12,121.88 L 145.33,125.82 L 145.35,127.94 L 145.06,132.15 L 144.86,134.21 L 144.69,135.21 L 144.90,133.27 L 145.24,129.08 L 145.26,126.90 L 145.13,122.66 L 144.87,120.02 L 144.65,118.79 L 144.33,117.25 M 144.01,115.90 L 144.03,115.98 L 143.94,115.70 M 12.83,89.87 L 12.82,90.92 L 12.94,91.60 L 13.29,93.07 L 13.60,93.97 L 13.81,94.54 L 13.90,94.70 L 14.08,94.94 L 14.18,94.94 L 14.39,94.86 L 14.53,94.70 L 14.83,94.30 L 15.04,93.97 L 15.53,92.78 L 15.51,92.93 L 15.40,93.59 L 15.16,94.65 L 15.04,95.14 L 14.79,95.87 L 14.66,96.20 L 14.40,96.60 L 14.27,96.77 L 14.02,96.84 L 13.90,96.84 L 13.66,96.59 L 13.54,96.43 L 13.33,95.85 L 13.22,95.52 L 13.04,94.61 L 12.96,94.12 L 12.82,92.89 L 12.75,92.19 L 12.72,91.03 L 12.73,90.50 L 12.85,89.66 L 12.86,89.58 M 15.34,88.10 L 15.69,88.65 L 15.83,89.01 L 15.83,89.32 L 15.72,88.89 L 15.43,88.58 L 14.74,88.11 L 14.25,88.21 L 13.26,88.75 L 12.91,89.36 L 12.93,89.28 L 13.19,88.74 L 13.76,88.26 L 14.28,88.06 L 15.01,88.04 M 111.93,83.40 L 112.25,83.75 L 111.73,83.23 M 78.81,78.28 L 78.82,78.27 L 80.24,77.57 L 80.31,77.54 M 91.97,74.84 L 93.68,74.96 L 90.93,74.98 L 89.50,75.05 L 86.65,75.50 L 85.24,75.78 L 85.13,75.81 L 86.05,75.48 L 90.00,74.83 M 95.92,75.10 L 96.98,75.35 L 95.25,75.10 L 94.08,74.98 M 98.78,53.75 L 99.06,66.00 L 94.78,65.85 L 91.25,65.70 L 89.35,65.55 L 88.59,65.42 L 87.21,65.11 L 86.68,64.86 L 85.73,64.28 L 85.40,63.86 L 84.80,62.91 L 84.61,62.27 L 84.29,60.85 L 84.20,59.93 L 84.07,57.93 L 84.04,56.68 L 84.02,54.00 L 84.01,52.37 L 84.05,49.12 L 84.14,47.33 L 84.24,46.60 L 84.46,45.26 L 84.65,44.73 L 85.06,43.76 L 85.35,43.40 L 86.01,42.75 L 86.44,42.52 L 87.39,42.12 L 87.99,41.99 L 89.28,41.78 L 90.07,41.72 L 91.76,41.64 L 92.77,41.61 L 98.50,41.50 M 107.97,17.85 L 109.71,20.34 L 112.06,24.47 L 112.69,25.75 L 113.59,27.82 L 113.98,28.80 L 114.47,30.53 L 114.66,31.38 L 114.81,33.11 L 114.74,36.09 L 114.69,36.83 L 114.58,38.07 L 114.53,38.63 L 114.43,39.45 L 114.37,39.80 L 114.29,40.11 L 114.25,40.20 L 114.18,39.93 L 114.04,38.67 L 113.32,35.86 L 112.90,34.43 L 111.76,31.54 L 111.15,30.12 L 109.72,27.48 L 107.42,24.17 L 106.13,22.67 L 109.10,25.48 L 108.84,21.68 L 108.53,19.63 L 108.12,18.44 L 107.78,17.86 L 107.11,16.84 M 80.03,21.62 L 78.59,22.96 L 75.86,26.35 L 72.06,32.50 L 68.91,38.50 L 69.43,33.76 L 69.57,32.53 L 70.21,29.96 L 70.58,28.67 L 71.64,26.07 L 72.02,25.18 L 72.07,25.39 L 72.20,25.48 L 72.52,25.60 L 72.76,25.59 L 73.90,25.40 L 74.65,25.09 L 76.26,24.33 L 77.10,23.80 L 78.77,22.65 L 79.50,21.98 L 81.91,20.05 M 104.70,21.32 L 105.66,22.23 L 103.66,20.51 M 84.45,18.33 L 83.98,18.60 L 84.98,17.97 L 86.08,17.47 L 86.91,17.14 M 98.14,17.13 L 99.23,17.66 L 99.74,17.93 L 98.43,17.29 L 97.82,17.04 M 92.07,16.02 L 89.06,16.49 L 87.83,16.78 L 88.27,16.61 L 89.37,16.37 L 91.56,16.02 M 92.66,16.03 L 94.85,16.19 L 95.95,16.46 L 96.20,16.54 L 93.75,16.14 L 92.44,16.03 M 105.10,14.64 L 105.22,14.77 L 104.61,14.21 M 98.77,10.11 L 100.94,11.37 L 102.01,12.05 L 104.08,13.74 L 104.31,13.95 L 100.67,11.22 L 98.15,9.86 M 81.78,12.38 L 80.96,13.09 L 81.66,12.46 L 82.66,11.63 L 82.97,11.43 M 83.18,11.29 L 84.69,10.31 L 85.03,10.16 M 86.96,9.30 L 87.69,8.97 L 88.09,8.86 M 95.43,8.87 L 96.58,9.28 L 94.84,8.76 M 63.42,101.36 L 63.48,100.68 L 63.78,98.21 L 64.01,97.21 L 64.53,95.32 L 64.91,94.44 L 65.76,92.67 L 65.92,92.40 L 65.31,93.68 L 64.64,95.35 L 63.82,99.03 L 63.65,100.00 L 63.41,102.11 L 63.17,105.59 L 63.31,102.91 Z" fill="rgba(52,234,246,1)"/>
<path d="M 92.30,191.50 L 91.82,191.53 L 91.81,191.53 L 91.98,191.52 L 92.55,191.41 M 93.05,139.26 L 93.31,139.38 L 93.73,139.95 L 93.92,140.31 L 94.23,141.47 L 94.37,142.14 L 94.57,144.02 L 94.67,145.06 L 94.79,147.78 L 94.84,149.27 L 94.88,152.97 L 94.89,153.97 L 94.89,156.16 L 94.89,157.30 L 94.88,159.79 L 94.87,161.07 L 94.84,163.86 L 94.79,168.42 L 94.77,169.84 L 94.74,172.43 L 94.72,173.69 L 94.69,175.95 L 94.67,177.04 L 94.64,179.00 L 94.62,179.94 L 94.59,181.62 L 94.55,183.23 L 94.45,185.70 L 94.40,186.82 L 94.26,188.45 L 94.18,189.17 L 94.04,189.82 L 93.63,189.25 L 93.49,188.67 L 93.43,188.28 L 93.31,187.43 L 93.26,186.90 L 93.16,185.75 L 93.13,185.07 L 93.05,183.62 L 93.03,182.78 L 92.98,181.02 L 92.96,180.01 L 92.94,177.92 L 92.93,176.75 L 92.86,171.80 L 92.77,168.91 L 92.71,167.68 L 92.57,165.37 L 92.49,164.45 L 92.31,162.76 L 92.21,162.16 L 92.00,161.13 L 91.88,160.87 L 91.64,160.54 L 91.51,160.64 L 91.24,161.03 L 91.10,161.51 L 90.82,162.67 L 90.68,163.54 L 90.54,164.58 L 90.46,165.49 L 90.42,166.03 L 90.27,168.43 L 90.21,169.89 L 90.10,172.93 L 90.07,174.58 L 90.01,177.92 L 90.01,179.58 L 90.01,182.27 L 90.02,183.38 L 90.03,185.46 L 90.05,186.29 L 90.10,187.82 L 90.14,188.42 L 90.22,189.50 L 90.29,189.89 L 90.43,190.58 L 90.53,190.82 L 90.74,191.21 L 90.88,191.32 L 91.12,191.41 L 91.12,191.41 L 90.80,191.30 L 90.36,190.72 L 90.16,190.35 L 89.85,189.11 L 89.71,188.38 L 89.43,186.27 L 89.38,185.89 L 89.31,184.76 L 89.28,184.13 L 89.23,182.54 L 89.22,181.69 L 89.20,179.71 L 89.20,178.68 L 89.21,176.38 L 89.23,174.02 L 89.34,168.65 L 89.63,160.20 L 89.72,157.92 L 89.90,154.08 L 89.98,152.26 L 90.14,149.27 L 90.22,147.87 L 90.38,145.62 L 90.47,144.58 L 90.64,142.97 L 90.73,142.24 L 90.93,141.16 L 91.03,140.68 L 91.27,140.04 L 91.40,139.76 L 91.69,139.43 L 92.19,139.20 L 92.51,139.14 M 175.44,151.67 L 175.42,153.65 L 175.40,154.59 L 175.34,156.17 L 175.26,157.68 L 174.91,159.95 L 174.68,161.03 L 173.90,163.07 L 173.67,163.60 L 173.09,164.77 L 172.05,166.77 L 171.59,167.63 L 170.44,169.49 L 169.83,170.42 L 168.52,172.25 L 167.85,173.15 L 166.53,174.74 L 164.72,176.63 L 163.80,177.46 L 161.64,179.04 L 160.51,179.80 L 158.07,181.21 L 156.83,181.89 L 154.27,183.07 L 152.99,183.63 L 150.49,184.53 L 149.26,184.94 L 146.99,185.50 L 145.90,185.74 L 144.02,185.91 L 143.15,185.94 L 142.81,185.87 L 143.11,185.73 L 143.26,185.40 L 143.45,184.62 L 143.30,184.05 L 143.25,183.02 L 143.42,182.30 L 143.61,181.94 L 144.60,180.45 L 145.46,179.71 L 147.39,178.22 L 148.67,177.51 L 151.42,176.12 L 153.07,175.50 L 155.55,174.36 L 157.44,173.32 L 158.42,172.72 L 160.37,171.47 L 161.30,170.81 L 163.09,169.49 L 163.85,168.85 L 165.75,167.32 L 166.90,166.48 L 167.42,166.14 L 168.41,165.54 L 168.84,165.33 L 169.66,164.96 L 169.99,164.87 L 170.61,164.76 L 170.84,164.79 L 171.25,164.93 L 171.38,165.09 L 171.56,165.47 L 171.56,165.77 L 171.50,166.41 L 171.38,166.83 L 171.36,167.16 L 171.53,167.05 L 171.69,166.84 L 172.05,166.32 L 172.29,165.92 L 172.81,165.05 L 173.12,164.50 L 174.27,162.08 L 174.79,160.41 L 174.96,159.39 L 175.24,157.21 L 175.31,155.76 L 175.37,154.25 L 175.39,153.38 L 175.42,151.55 L 175.43,150.50 L 175.50,140.50 L 175.45,150.50 M 8.58,156.88 L 8.74,157.15 L 9.06,157.53 L 9.26,157.46 L 9.94,157.58 L 10.53,157.97 L 10.87,158.29 L 11.57,159.01 L 11.93,159.47 L 12.66,160.45 L 13.01,161.01 L 16.41,165.39 L 19.19,168.09 L 20.73,169.25 L 23.87,171.42 L 25.47,172.22 L 28.64,173.62 L 30.13,173.93 L 33.88,174.59 L 34.84,174.69 L 35.18,174.70 L 35.74,174.69 L 35.83,174.64 L 36.33,174.64 L 36.85,174.77 L 37.19,174.90 L 38.67,175.57 L 39.50,176.06 L 41.28,177.10 L 41.89,177.39 L 42.94,177.82 L 43.25,177.79 L 43.75,177.57 L 43.78,177.48 L 43.71,179.39 L 43.69,180.11 L 43.64,181.30 L 43.61,181.86 L 43.53,182.77 L 43.45,183.61 L 43.16,184.63 L 42.98,185.05 L 42.38,185.45 L 41.00,185.72 L 40.66,185.75 L 39.49,185.59 L 38.84,185.49 L 37.22,185.10 L 35.52,184.66 L 31.64,183.31 L 29.87,182.64 L 26.56,180.94 L 24.94,180.05 L 21.97,177.95 L 20.53,176.85 L 17.94,174.40 L 16.69,173.13 L 14.51,170.37 L 13.47,168.96 L 11.75,165.95 L 10.94,164.42 L 9.70,161.21 L 9.15,159.58 L 8.53,156.65 M 140.66,184.55 L 140.78,184.78 L 140.70,184.67 L 140.63,184.48 L 140.63,184.48 M 141.58,174.05 L 141.47,174.57 L 141.05,176.95 L 140.91,178.06 L 141.04,176.98 L 141.46,174.59 L 141.56,174.07 L 141.78,173.28 L 142.10,172.63 L 141.79,173.27 M 43.93,173.28 L 43.87,174.99 L 43.75,174.40 L 43.30,173.62 L 42.90,173.22 L 41.98,172.41 L 41.31,171.97 L 39.82,171.04 M 27.42,161.51 L 26.86,160.92 L 26.86,160.91 M 21.57,151.82 L 22.34,153.83 L 22.78,154.83 L 23.94,156.87 L 24.56,157.89 L 26.07,159.91 L 26.66,160.66 L 26.07,159.92 L 24.56,157.90 L 23.94,156.88 L 22.78,154.84 L 22.34,153.83 L 21.57,151.82 L 21.35,150.84 L 21.00,148.91 L 21.00,148.91 L 21.35,150.84 M 63.08,109.07 L 63.07,110.15 L 63.13,112.09 L 63.21,113.97 L 63.74,117.11 L 64.07,118.62 L 65.15,121.34 L 67.53,125.45 L 69.93,128.99 L 66.07,130.96 L 64.57,131.73 L 61.84,133.82 L 60.52,134.94 L 58.26,137.61 L 57.20,138.99 L 55.56,142.05 L 53.94,146.88 L 53.69,148.10 L 53.27,150.09 L 53.07,151.01 L 52.71,152.44 L 52.53,153.09 L 52.18,154.00 L 52.00,154.39 L 51.61,154.81 L 51.40,154.96 L 50.92,154.93 L 50.66,154.86 L 50.02,154.42 L 49.68,154.15 L 48.85,153.34 L 48.40,152.90 L 47.32,151.75 L 46.58,150.97 L 45.24,149.25 L 44.60,148.36 L 43.46,146.44 L 42.91,145.46 L 41.97,143.35 L 41.55,142.35 L 41.60,142.44 L 41.82,142.74 L 42.28,143.20 L 42.52,143.22 L 42.95,142.91 L 43.25,142.37 L 43.40,141.97 L 43.97,140.06 L 44.14,138.82 L 45.00,134.93 L 45.37,133.71 L 45.57,133.19 L 45.96,132.24 L 46.14,131.90 L 48.83,127.87 L 51.05,125.09 L 52.25,123.78 L 54.67,121.26 L 55.82,120.25 L 56.95,119.28 L 57.48,118.89 L 58.51,118.16 L 58.96,117.90 L 62.78,115.76 L 63.10,107.63 M 40.06,137.30 L 40.22,138.09 L 40.09,137.69 L 39.95,136.72 M 41.08,114.72 L 40.42,116.84 L 40.17,117.97 L 39.73,120.27 L 39.58,121.50 L 39.33,124.03 L 39.27,125.39 L 39.37,131.60 L 39.68,134.86 L 39.35,132.63 L 39.22,124.54 L 39.30,123.27 L 39.59,120.89 L 39.76,119.72 L 40.25,117.52 L 40.79,115.36 L 41.13,114.57 M 114.40,109.04 L 114.57,109.42 L 114.69,109.85 L 114.68,110.16 L 114.61,110.82 L 114.49,111.25 L 113.89,113.43 L 113.50,114.95 L 113.37,115.50 L 112.90,117.50 L 114.06,115.70 L 113.31,117.50 L 112.60,118.84 L 110.83,121.27 L 109.90,122.44 L 107.76,124.51 L 106.65,125.49 L 104.23,127.15 L 102.99,127.93 L 100.37,129.15 L 99.05,129.70 L 96.32,130.44 L 94.96,130.75 L 92.22,130.98 L 90.85,131.03 L 88.18,130.70 L 86.86,130.47 L 84.36,129.55 L 83.43,129.15 L 81.61,128.07 L 80.70,127.49 L 78.93,126.08 L 78.06,125.35 L 76.40,123.68 L 75.58,122.82 L 74.08,120.96 L 73.35,120.01 L 72.04,118.01 L 71.42,117.00 L 70.36,114.93 L 69.87,113.88 L 69.10,111.79 L 68.52,109.45 L 68.63,109.55 L 69.28,109.89 L 69.75,109.80 L 70.70,109.93 L 71.41,110.31 L 71.80,110.65 L 72.60,111.43 L 73.04,111.96 L 73.95,113.14 L 74.44,113.87 L 75.93,115.81 L 77.16,117.17 L 77.84,117.83 L 79.21,119.12 L 79.90,119.68 L 81.26,120.75 L 81.88,121.14 L 84.40,122.51 L 85.75,122.95 L 88.50,123.67 L 89.93,123.80 L 92.79,123.90 L 94.23,123.73 L 97.08,123.26 L 98.46,122.82 L 101.18,121.81 L 102.45,121.12 L 104.91,119.61 L 106.00,118.69 L 108.08,116.72 L 108.93,115.58 L 110.50,113.20 L 111.05,111.87 L 112.34,109.82 L 113.28,109.04 L 113.68,108.97 M 21.17,97.17 L 21.50,97.50 L 22.33,98.00 L 23.00,98.00 L 24.50,97.50 L 24.90,96.84 L 24.95,97.87 L 24.97,98.45 L 24.99,99.89 L 25.00,102.50 L 25.00,103.32 L 24.98,104.76 L 24.97,105.44 L 24.93,106.61 L 24.89,107.72 L 24.71,109.22 L 24.60,109.87 L 24.28,110.60 L 23.61,111.00 L 23.22,111.00 L 22.44,110.54 L 22.08,110.25 L 21.61,109.42 L 21.52,109.20 L 21.37,108.26 L 21.30,107.72 L 21.18,106.27 L 21.00,100.92 L 21.00,100.14 L 21.01,98.83 L 21.02,98.21 L 21.06,97.20 L 21.09,96.61 M 115.34,109.33 L 115.33,109.38 L 115.34,109.26 M 114.43,99.08 L 114.65,99.90 L 114.98,101.69 L 115.27,103.51 L 115.37,107.39 L 115.36,107.96 L 115.33,106.81 L 115.10,102.99 L 114.81,101.24 L 114.50,99.54 L 114.30,98.78 L 113.88,97.36 L 113.94,97.48 M 70.57,97.72 L 69.67,99.86 L 69.32,100.89 L 68.90,102.22 L 69.12,101.34 L 69.98,99.01 L 70.45,97.84 L 71.62,95.53 L 72.24,94.38 L 73.48,92.47 M 65.76,92.67 L 64.91,94.44 L 64.53,95.32 L 64.01,97.21 L 63.78,98.21 L 63.56,100.05 L 63.75,98.32 L 63.97,97.30 L 64.49,95.39 L 64.87,94.49 L 65.74,92.71 L 66.34,91.68 L 66.34,91.68 M 21.93,94.20 L 23.00,94.00 L 21.67,94.44 M 24.09,94.23 L 24.36,94.41 L 24.37,94.42 L 23.98,94.19 M 96.55,82.36 L 101.51,83.86 L 102.67,84.39 L 105.03,86.02 L 105.21,86.16 L 104.80,85.89 L 102.89,84.71 L 101.86,84.23 L 99.77,83.35 L 98.66,83.02 L 96.41,82.45 L 95.23,82.28 L 92.84,82.03 L 91.59,82.02 L 86.41,82.59 L 87.58,82.29 L 91.17,81.98 L 92.97,81.93 M 81.69,84.34 L 81.20,84.65 L 81.37,84.52 L 82.71,83.74 L 82.98,83.65 M 71.48,84.30 L 71.64,84.10 L 71.64,84.10 M 85.22,82.93 L 85.92,82.71 L 86.17,82.65 M 75.04,80.83 L 73.64,82.14 L 75.04,80.84 L 76.27,79.95 L 78.82,78.27 L 78.82,78.27 L 76.28,79.95 M 29.73,55.33 L 30.16,55.76 L 31.40,56.37 L 32.42,56.47 L 32.87,56.33 L 33.77,56.19 L 33.80,56.41 L 33.50,56.66 L 32.77,57.89 L 32.45,59.08 L 32.43,59.68 L 32.43,60.91 L 32.53,61.33 L 32.67,61.35 L 33.05,61.25 L 33.40,61.01 L 34.20,60.41 L 34.81,59.93 L 35.46,59.55 L 33.89,61.02 L 33.07,61.87 L 31.83,63.75 L 31.57,64.22 L 31.22,65.12 L 31.00,66.36 L 31.00,67.01 L 30.79,68.07 L 30.66,68.56 L 30.25,69.23 L 30.03,69.51 L 29.49,69.69 L 29.22,69.71 L 28.64,69.31 L 28.46,69.13 L 28.18,68.10 L 27.98,66.08 L 27.97,65.01 L 27.39,63.14 L 27.01,62.26 L 26.71,61.92 L 26.75,61.89 L 26.84,61.61 L 26.79,61.25 L 26.63,60.35 L 26.45,59.68 L 26.49,57.64 L 27.00,56.44 L 27.40,56.02 L 28.27,55.32 L 28.76,55.25 M 24.81,49.58 L 23.21,51.13 L 22.15,51.74 L 19.85,52.86 L 18.41,53.28 L 15.40,54.43 L 14.68,54.83 L 14.45,55.02 L 14.07,55.36 L 14.05,55.50 L 14.40,55.98 L 15.02,56.36 L 15.49,56.56 L 16.52,56.96 L 17.14,57.15 L 18.46,57.53 L 19.19,57.69 L 23.23,58.99 L 24.30,59.50 L 24.69,59.74 L 25.36,60.23 L 25.49,60.44 L 25.74,60.82 L 25.70,60.76 L 24.94,60.06 L 22.88,58.94 L 18.95,57.66 L 18.20,57.50 L 16.85,57.12 L 16.21,56.93 L 15.16,56.54 L 14.68,56.34 L 14.05,55.98 L 13.69,55.53 L 13.72,55.40 L 14.11,55.07 L 14.35,54.89 L 15.11,54.50 L 18.24,53.33 L 19.72,52.90 L 22.08,51.77 L 23.16,51.15 L 24.78,49.60 L 25.08,49.26 M 45.00,54.99 L 44.47,55.81 L 44.13,56.21 L 43.41,56.69 L 44.14,56.19 L 44.48,55.79 L 45.00,54.98 M 25.52,48.75 L 25.51,48.75 L 25.88,47.96 M 26.46,46.70 L 27.18,43.01 L 26.46,46.70 Z" fill="rgba(235,28,142,1)"/>
<path d="M 175.43,150.50 L 175.42,151.55 L 175.39,153.38 L 175.37,154.25 L 175.31,155.76 L 175.24,157.21 L 174.96,159.39 L 174.79,160.41 L 174.27,162.08 L 173.12,164.50 L 172.81,165.05 L 172.29,165.92 L 172.05,166.32 L 171.69,166.84 L 171.53,167.05 L 171.36,167.16 L 171.38,166.83 L 171.50,166.41 L 171.56,165.77 L 171.56,165.47 L 171.38,165.09 L 171.25,164.93 L 170.84,164.79 L 170.61,164.76 L 169.99,164.87 L 169.66,164.96 L 168.84,165.33 L 168.41,165.54 L 167.42,166.14 L 166.90,166.48 L 165.75,167.32 L 163.85,168.85 L 163.09,169.49 L 161.30,170.81 L 160.37,171.47 L 158.42,172.72 L 157.44,173.32 L 155.55,174.36 L 153.07,175.50 L 151.42,176.12 L 148.67,177.51 L 147.39,178.22 L 145.46,179.71 L 144.60,180.45 L 143.61,181.94 L 143.42,182.30 L 143.25,183.02 L 143.30,184.05 L 143.45,184.62 L 143.26,185.40 L 143.11,185.73 L 142.53,185.99 L 142.21,186.05 L 141.52,185.74 L 141.18,185.50 L 140.66,184.55 L 140.59,184.38 L 140.53,183.66 L 140.52,183.26 L 140.55,182.19 L 140.59,181.06 L 140.88,178.31 L 141.02,177.19 L 141.02,177.75 L 141.10,179.36 L 141.25,179.89 L 141.60,180.76 L 141.83,180.90 L 142.33,180.96 L 142.58,180.66 L 143.07,179.84 L 143.27,179.06 L 144.01,177.96 L 144.98,176.97 L 145.65,176.39 L 147.09,175.18 L 147.94,174.55 L 149.70,173.28 L 150.64,172.66 L 154.64,169.96 L 156.94,168.28 L 157.92,167.48 L 159.79,165.90 L 160.58,165.11 L 162.07,163.55 L 162.69,162.75 L 163.87,161.13 L 164.36,160.27 L 165.28,158.52 L 165.66,157.56 L 166.38,155.60 L 166.68,154.52 L 167.26,152.27 L 167.52,151.02 L 167.89,149.29 L 168.12,148.34 L 168.23,147.95 L 168.71,146.62 L 169.03,146.20 L 169.74,145.50 L 170.28,145.27 L 171.49,144.87 L 172.38,144.66 L 174.00,144.14 L 174.84,143.74 L 175.13,143.52 L 175.48,143.21 M 43.03,177.81 L 42.94,177.82 L 42.50,177.64 M 43.75,177.57 L 43.48,177.69 L 43.77,177.49 M 44.00,176.35 L 43.86,177.22 L 43.78,177.47 L 43.87,177.14 L 44.00,176.30 M 9.66,141.53 L 9.50,142.12 L 9.50,142.50 L 9.66,143.47 L 9.94,143.96 L 10.20,144.14 L 10.78,144.46 L 11.20,144.57 L 12.13,144.75 L 12.75,144.81 L 14.45,145.07 L 15.20,145.34 L 15.43,145.56 L 15.80,146.07 L 15.89,146.46 L 16.00,147.33 L 16.00,147.94 L 16.37,151.54 L 16.98,153.93 L 17.48,155.11 L 18.60,157.48 L 19.35,158.66 L 20.98,161.02 L 21.99,162.20 L 24.13,164.57 L 25.41,165.76 L 28.08,168.13 L 29.62,169.33 L 32.84,171.73 L 34.65,172.95 L 38.41,175.39 L 40.50,176.62 L 41.67,177.29 L 41.28,177.10 L 39.50,176.06 L 38.67,175.57 L 37.19,174.90 L 36.85,174.77 L 36.33,174.64 L 35.83,174.64 L 35.74,174.69 L 35.18,174.70 L 34.84,174.69 L 33.88,174.59 L 30.13,173.93 L 28.64,173.62 L 25.47,172.22 L 23.87,171.42 L 20.73,169.25 L 19.19,168.09 L 16.41,165.39 L 13.01,161.01 L 12.66,160.45 L 11.93,159.47 L 11.57,159.01 L 10.87,158.29 L 10.53,157.97 L 9.94,157.58 L 9.26,157.46 L 9.06,157.53 L 8.74,157.15 L 8.58,156.88 L 8.35,155.93 L 8.24,155.40 L 8.09,154.04 L 8.03,153.32 L 7.97,151.70 L 7.94,150.05 L 8.17,146.63 L 8.25,145.82 L 8.50,144.36 L 8.98,142.57 L 9.25,141.85 L 9.77,141.26 M 154.69,164.81 L 153.84,165.51 L 152.08,166.89 L 151.08,167.55 L 149.01,168.83 L 147.86,169.46 L 145.75,170.61 L 144.59,171.28 L 144.13,171.59 L 142.54,172.72 L 142.08,173.28 L 141.57,174.07 L 141.58,174.05 L 141.79,173.27 L 142.10,172.63 L 142.16,172.59 L 142.68,172.28 L 143.00,172.09 L 143.96,171.56 L 144.48,171.27 L 145.74,170.58 L 147.86,169.44 L 149.01,168.82 L 151.08,167.54 L 152.07,166.89 L 153.84,165.52 L 154.69,164.81 L 156.07,163.42 M 156.19,163.29 L 156.19,163.29 L 156.37,163.10 M 156.91,162.51 L 156.91,162.51 L 157.60,161.58 M 158.78,159.92 L 158.78,159.92 L 159.78,158.09 M 159.85,157.97 L 159.84,157.98 L 160.30,157.07 M 166.38,141.66 L 165.05,142.93 L 164.56,143.78 L 163.70,145.62 L 163.47,146.72 L 162.44,151.01 L 161.68,153.57 L 161.25,154.73 L 160.36,156.96 L 160.35,156.97 L 161.25,154.74 L 161.68,153.58 L 162.44,151.01 L 163.47,146.72 L 163.70,145.61 L 164.56,143.78 L 165.05,142.93 L 166.38,141.66 L 166.78,141.35 M 19.91,144.13 L 20.02,144.38 L 19.76,143.93 M 175.50,140.50 L 175.49,141.39 L 175.14,141.08 L 174.80,140.91 L 174.03,140.58 L 173.53,140.46 L 172.45,140.25 L 171.80,140.19 L 171.81,140.19 M 13.74,139.98 L 14.42,140.07 L 15.81,140.59 L 16.13,140.74 L 15.81,140.62 L 13.79,140.09 L 12.73,140.19 L 11.19,140.44 L 10.44,140.68 L 10.19,140.86 L 9.78,141.25 L 10.12,140.87 L 10.60,140.45 L 11.78,140.04 L 12.39,139.89 M 167.10,141.10 L 167.10,141.10 L 167.63,140.90 M 168.83,140.44 L 168.83,140.44 L 169.35,140.40 M 102.45,121.12 L 101.18,121.81 L 100.83,121.94 L 100.85,121.93 L 102.59,121.03 M 115.10,102.99 L 115.33,106.81 L 115.38,108.69 L 115.13,112.05 L 115.04,112.81 L 114.76,114.09 L 114.19,115.50 L 112.90,117.50 L 113.37,115.50 L 113.50,114.95 L 113.89,113.43 L 114.49,111.25 L 114.61,110.82 L 114.68,110.16 L 114.69,109.85 L 114.57,109.42 L 114.40,109.04 L 113.68,108.97 L 113.28,109.04 L 112.34,109.82 L 111.05,111.87 L 110.50,113.20 L 108.93,115.58 L 108.08,116.72 L 106.00,118.69 L 104.91,119.61 L 103.15,120.69 L 103.74,120.29 L 105.54,118.97 L 106.36,118.20 L 107.60,116.79 L 108.51,115.56 L 108.99,114.85 L 110.93,111.74 L 111.82,110.06 L 113.50,106.71 L 114.08,105.28 L 114.59,103.91 L 114.75,103.34 L 114.99,102.34 M 85.64,95.30 L 83.17,98.10 L 82.02,99.96 L 81.69,100.85 L 81.22,102.61 L 81.25,103.42 L 81.48,104.99 L 81.88,105.68 L 82.46,106.62 L 82.71,106.92 L 82.78,106.90 L 82.90,106.74 L 82.93,106.48 L 82.96,105.85 L 82.97,105.36 L 83.21,104.28 L 83.58,103.40 L 83.84,102.93 L 85.10,100.96 L 85.61,100.42 L 84.71,101.82 L 84.00,104.50 L 84.00,105.31 L 84.70,107.05 L 85.13,107.90 L 86.47,109.47 L 87.18,110.21 L 88.83,111.29 L 91.32,112.00 L 91.98,112.00 L 93.80,111.39 L 94.71,111.02 L 96.37,109.93 L 97.03,109.41 L 97.98,108.17 L 98.39,107.53 L 98.86,106.15 L 99.04,105.44 L 99.08,104.00 L 99.04,103.29 L 98.67,101.90 L 98.44,101.22 L 97.71,99.99 L 97.30,99.40 L 96.23,98.43 L 95.66,97.99 L 94.29,97.38 L 92.37,97.07 L 93.44,97.09 L 94.42,97.42 L 96.39,98.31 L 97.37,99.07 L 100.00,101.15 L 100.00,98.73 L 99.58,96.78 L 98.91,95.55 L 98.42,95.01 L 97.34,94.00 L 96.68,93.61 L 95.28,92.91 L 94.50,92.72 L 94.05,92.52 L 94.11,92.40 L 94.30,92.34 L 94.79,92.24 L 95.19,92.20 L 96.07,92.13 L 96.63,92.12 L 98.93,92.19 L 100.13,92.43 L 100.68,92.71 L 101.75,93.37 L 102.35,93.90 L 103.59,95.13 L 104.38,96.00 L 106.21,98.20 L 107.05,99.46 L 107.31,100.07 L 107.75,101.31 L 107.86,102.00 L 108.00,103.46 L 108.00,104.35 L 107.51,107.93 L 106.72,110.26 L 106.10,111.37 L 104.73,113.55 L 103.85,114.54 L 101.95,116.46 L 100.82,117.30 L 99.91,117.90 L 99.36,118.15 L 98.21,118.63 L 97.57,118.82 L 94.85,119.48 L 93.40,119.60 L 90.47,119.72 L 89.11,119.57 L 86.50,119.11 L 85.50,118.64 L 82.71,116.99 L 81.07,115.65 L 80.36,114.88 L 79.02,113.28 L 78.47,112.40 L 77.47,110.60 L 77.10,109.65 L 76.46,107.73 L 76.28,106.74 L 76.02,104.76 L 76.05,103.77 L 76.20,101.79 L 76.44,100.82 L 77.03,98.92 L 77.49,98.01 L 79.19,95.49 L 80.53,94.11 L 81.29,93.60 L 82.85,92.68 L 83.69,92.41 L 85.40,92.00 L 89.14,92.00 M 69.63,100.14 L 69.53,102.45 L 69.81,104.22 L 70.10,105.19 L 70.79,107.16 L 71.26,108.19 L 72.28,110.26 L 72.90,111.29 L 74.20,113.35 L 74.93,114.34 L 76.44,116.28 L 77.25,117.16 L 78.42,118.37 L 77.84,117.83 L 77.16,117.17 L 75.93,115.81 L 74.44,113.87 L 73.95,113.14 L 73.04,111.96 L 72.60,111.43 L 71.80,110.65 L 71.41,110.31 L 70.70,109.93 L 69.75,109.80 L 69.28,109.89 L 68.63,109.55 L 68.36,109.30 L 68.07,108.35 L 67.97,107.82 L 68.03,106.39 L 68.10,105.63 L 68.46,103.85 L 68.68,102.92 L 69.32,100.89 L 69.67,99.86 L 69.72,99.75 M 172.50,87.23 L 172.54,87.38 L 172.61,87.89 L 172.68,88.46 L 172.78,90.30 L 172.81,91.32 L 172.84,93.87 L 172.78,98.24 L 172.75,99.41 L 172.69,101.42 L 172.65,102.38 L 172.58,103.98 L 172.53,104.73 L 172.43,105.96 L 172.38,106.53 L 172.25,107.44 L 172.11,108.28 L 171.72,109.19 L 170.88,109.79 L 170.60,109.84 L 170.12,109.74 L 169.89,109.65 L 169.50,109.26 L 169.32,109.02 L 169.01,108.33 L 168.87,107.94 L 168.63,106.92 L 168.55,106.49 L 168.39,105.16 L 168.31,104.44 L 168.19,102.71 L 168.00,97.03 L 168.00,95.72 L 168.09,93.69 L 168.15,92.76 L 168.38,91.36 L 168.52,90.72 L 168.94,89.77 L 169.83,88.65 L 170.33,88.20 L 170.84,87.83 L 170.62,88.32 L 170.48,88.74 L 169.96,90.67 L 169.77,91.95 L 169.42,94.69 L 169.34,96.28 L 169.23,98.92 L 169.23,99.89 L 169.26,101.60 L 169.34,102.16 L 169.54,103.09 L 169.71,103.33 L 170.10,103.67 L 170.37,103.67 L 171.05,103.25 L 171.41,102.51 L 171.56,101.88 L 171.84,100.42 L 171.95,99.38 L 172.16,97.08 L 172.25,95.58 L 172.41,92.41 L 172.48,90.52 L 172.49,89.75 L 172.49,88.34 L 172.47,87.87 L 172.41,87.13 L 172.36,87.07 L 172.29,87.03 L 172.36,87.00 L 172.41,87.00 M 104.80,85.89 L 105.74,86.52 L 107.47,87.99 L 108.32,88.76 L 109.85,90.51 L 110.59,91.43 L 111.91,93.45 L 113.63,96.79 L 113.88,97.36 L 114.25,98.60 L 113.71,97.14 L 113.14,96.00 L 111.90,93.67 L 111.16,92.55 L 109.60,90.34 L 108.76,89.38 L 105.93,86.71 L 104.59,85.75 M 89.99,97.36 L 90.51,97.14 L 90.65,97.13 M 80.90,84.85 L 77.36,87.79 L 75.02,90.34 L 73.97,91.77 L 73.42,92.57 L 74.07,91.40 L 75.15,89.83 L 77.60,87.28 L 78.86,86.10 L 81.69,84.34 L 81.75,84.31 M 102.89,84.71 L 102.94,84.74 L 102.82,84.67 M 82.16,84.09 L 83.15,83.56 L 83.88,83.34 M 45.35,71.95 L 45.59,72.19 L 45.74,72.84 L 45.77,73.17 L 45.56,73.84 L 45.42,74.16 L 44.93,74.66 L 44.00,75.00 L 43.76,75.00 L 43.18,74.67 L 42.89,74.47 L 42.43,73.89 L 42.22,73.54 L 42.36,72.83 L 42.50,72.49 L 43.13,71.95 L 43.47,71.73 L 44.28,71.56 M 28.96,53.29 L 29.60,53.45 L 30.03,53.73 L 30.98,54.41 L 31.66,54.95 L 33.18,55.98 L 33.65,56.21 L 32.87,56.33 L 32.42,56.47 L 31.40,56.37 L 30.16,55.76 L 29.73,55.33 L 28.76,55.25 L 28.27,55.32 L 27.40,56.02 L 27.00,56.44 L 26.49,57.64 L 26.45,59.68 L 26.63,60.35 L 26.79,61.25 L 26.84,61.61 L 26.75,61.89 L 26.67,61.95 L 26.32,61.62 L 26.11,61.37 L 25.49,60.44 L 25.36,60.23 L 24.69,59.74 L 24.30,59.50 L 23.23,58.99 L 19.19,57.69 L 18.46,57.53 L 17.14,57.15 L 16.52,56.96 L 15.49,56.56 L 15.02,56.36 L 14.40,55.98 L 14.05,55.50 L 14.07,55.36 L 14.45,55.02 L 14.68,54.83 L 15.40,54.43 L 16.27,54.10 L 15.88,54.33 L 15.77,54.44 L 15.65,54.67 L 15.70,54.78 L 15.89,54.99 L 16.11,55.09 L 16.63,55.29 L 17.00,55.39 L 17.84,55.59 L 18.39,55.69 L 19.56,55.89 L 20.27,56.00 L 21.82,56.20 L 22.45,56.22 L 23.60,56.21 L 24.09,56.11 L 25.00,55.85 L 25.43,55.62 L 26.26,55.08 L 26.69,54.70 L 28.00,53.62 L 28.64,53.28 M 45.00,54.58 L 45.00,54.98 L 44.48,55.79 L 44.14,56.19 L 43.12,56.89 L 42.56,57.22 L 41.25,57.69 L 39.20,58.00 L 38.67,58.00 L 37.12,58.57 L 34.81,59.93 L 34.20,60.41 L 33.40,61.01 L 33.05,61.25 L 32.67,61.35 L 32.53,61.33 L 32.43,60.91 L 32.43,59.68 L 32.45,59.08 L 32.77,57.89 L 33.50,56.66 L 33.80,56.41 L 33.78,56.27 L 34.12,56.43 L 34.60,56.55 L 35.58,56.72 L 36.13,56.72 L 37.29,56.64 L 37.97,56.52 L 40.77,55.96 L 42.29,55.60 L 42.87,55.42 L 43.92,55.06 L 44.27,54.88 L 44.85,54.54 L 44.92,54.43 M 132.58,21.15 L 132.86,21.69 L 133.47,22.82 L 133.85,23.46 L 134.68,24.78 L 135.17,25.51 L 137.29,28.54 L 138.55,30.20 L 141.20,33.58 L 142.63,35.30 L 145.54,38.72 L 147.01,40.34 L 149.94,43.51 L 151.32,44.88 L 154.00,47.47 L 155.16,48.45 L 156.29,49.37 L 156.79,49.72 L 157.76,50.37 L 158.16,50.58 L 159.71,51.34 L 160.55,51.68 L 160.87,51.78 L 161.45,51.91 L 161.64,51.90 L 161.96,51.82 L 162.03,51.70 L 162.09,51.39 L 162.03,51.16 L 161.85,50.63 L 161.66,50.28 L 161.23,49.52 L 160.92,49.06 L 160.24,48.06 L 159.81,47.47 L 157.71,44.60 L 156.59,43.06 L 156.16,42.46 L 155.39,41.36 L 155.12,40.95 L 154.65,40.23 L 154.52,39.99 L 154.33,39.59 L 154.33,39.48 L 154.38,39.32 L 154.48,39.31 L 155.08,39.44 L 155.61,39.63 L 157.24,40.31 L 158.22,40.79 L 158.50,40.98 L 159.16,41.25 L 159.81,41.43 L 160.21,41.51 L 161.97,41.79 L 162.91,41.85 L 165.81,42.48 L 167.20,43.37 L 167.67,44.13 L 168.10,44.94 L 168.26,45.43 L 168.56,46.48 L 168.66,47.10 L 168.84,48.42 L 168.89,49.18 L 168.96,50.78 L 168.97,51.70 L 169.07,54.75 L 169.22,56.27 L 169.36,56.82 L 169.67,57.80 L 169.90,58.14 L 170.41,58.72 L 170.75,58.92 L 171.88,59.55 L 172.36,59.74 L 172.79,59.89 L 172.34,59.88 L 171.48,59.79 L 169.32,59.18 L 168.17,58.80 L 165.50,57.62 L 164.99,57.38 L 163.78,56.62 L 163.15,56.19 L 161.72,55.09 L 160.98,54.51 L 159.38,53.12 L 158.56,52.40 L 156.83,50.77 L 155.07,49.09 L 151.32,45.23 L 149.44,43.24 L 145.69,39.03 L 143.85,36.92 L 140.45,32.76 L 138.82,30.72 L 136.09,26.98 L 135.46,26.09 L 134.39,24.46 L 133.89,23.67 L 133.11,22.27 L 132.75,21.60 L 132.29,20.49 L 132.25,20.30 M 175.45,51.74 L 175.58,52.83 L 175.73,54.78 L 175.79,55.70 L 175.78,57.19 L 175.56,58.70 L 175.37,59.19 L 175.10,59.35 L 175.19,59.14 L 175.47,58.32 L 175.54,57.75 L 175.65,56.48 L 175.64,55.67 L 175.58,53.92 L 175.50,52.86 L 175.30,50.60 L 175.22,49.91 M 132.86,38.20 L 133.06,38.33 L 133.62,38.77 L 134.22,39.26 L 135.91,40.80 L 136.81,41.65 L 138.91,43.71 L 139.99,44.78 L 142.23,47.08 L 143.35,48.24 L 145.49,50.52 L 146.52,51.63 L 148.29,53.63 L 149.11,54.56 L 150.25,56.01 L 150.49,56.32 L 150.80,56.79 L 151.00,57.25 L 151.00,57.47 L 150.83,57.77 L 150.72,57.90 L 150.35,58.02 L 149.93,58.10 L 148.62,57.78 L 147.91,57.54 L 146.19,56.63 L 145.29,56.12 L 143.39,54.71 L 141.15,52.93 L 137.29,49.09 L 136.40,48.14 L 134.85,46.29 L 134.12,45.38 L 132.94,43.68 L 132.40,42.86 L 131.65,41.41 L 131.33,40.72 L 131.07,39.61 L 131.00,39.10 L 131.01,39.08 L 131.20,39.49 L 131.78,40.49 L 132.30,41.11 L 133.46,42.39 L 134.25,43.10 L 135.83,44.54 L 137.06,45.68 L 137.72,46.30 L 140.40,48.82 L 141.50,49.88 L 143.10,51.40 L 143.72,51.95 L 144.84,52.94 L 145.22,53.24 L 145.88,53.71 L 146.03,53.76 L 146.22,53.74 L 146.15,53.56 L 145.89,53.06 L 145.60,52.65 L 144.90,51.70 L 144.38,51.06 L 143.24,49.68 L 142.51,48.84 L 140.94,47.05 L 140.00,46.00 L 137.13,42.89 L 135.38,41.07 L 134.64,40.35 L 133.28,39.04 L 132.81,38.63 L 132.38,38.27 L 132.22,38.16 L 132.13,38.11 L 132.42,38.00 L 132.51,38.00 M 23.34,51.06 L 22.34,51.66 L 20.15,52.77 L 18.80,53.18 L 17.97,53.45 L 18.41,53.28 L 19.85,52.86 L 22.15,51.74 L 23.21,51.13 L 24.74,49.65 M 24.87,49.51 L 24.82,49.56 L 25.06,49.28 M 25.56,48.68 L 25.54,48.70 L 25.99,47.73 M 26.46,46.66 L 27.18,43.01 L 26.47,46.64 M 172.11,36.73 L 172.37,37.27 L 172.90,38.80 L 173.16,39.63 L 173.55,41.17 L 173.18,40.04 L 172.18,37.27 L 171.57,35.97 L 170.99,34.82 M 159.63,22.60 L 158.89,22.14 L 157.65,21.53 L 159.11,22.25 M 20.57,145.58 L 21.00,147.99 L 20.36,145.12 Z" fill="rgba(210,53,87,1)"/>
<path d="M 91.88,160.87 L 92.00,161.13 L 92.21,162.16 L 92.31,162.76 L 92.49,164.45 L 92.57,165.37 L 92.71,167.68 L 92.77,168.91 L 92.86,171.80 L 92.93,176.75 L 92.94,177.92 L 92.96,180.01 L 92.98,181.02 L 93.03,182.78 L 93.05,183.62 L 93.13,185.07 L 93.16,185.75 L 93.26,186.90 L 93.31,187.43 L 93.43,188.28 L 93.49,188.67 L 93.63,189.25 L 94.17,190.00 L 94.65,190.00 L 94.94,190.22 L 94.99,190.35 L 94.60,190.70 L 94.34,190.88 L 93.50,191.22 L 91.98,191.52 L 91.51,191.55 L 90.88,191.32 L 90.74,191.21 L 90.53,190.82 L 90.43,190.58 L 90.29,189.89 L 90.22,189.50 L 90.14,188.42 L 90.10,187.82 L 90.05,186.29 L 90.03,185.46 L 90.02,183.38 L 90.01,182.27 L 90.01,179.58 L 90.01,177.92 L 90.07,174.58 L 90.10,172.93 L 90.21,169.89 L 90.27,168.43 L 90.42,166.03 L 90.46,165.49 L 90.54,164.58 L 90.68,163.54 L 90.82,162.67 L 91.10,161.51 L 91.24,161.03 L 91.51,160.64 L 91.64,160.54 M 0.51,154.82 L 0.69,155.27 L 0.82,155.76 L 0.87,156.88 L 0.66,158.27 L 0.59,158.44 L 0.47,158.51 L 0.41,158.51 L 0.32,158.26 L 0.27,158.10 L 0.22,157.57 L 0.20,157.27 L 0.19,156.50 L 0.20,156.09 L 0.25,155.47 L 0.27,155.21 L 0.36,154.90 L 0.40,154.79 M 63.97,97.30 L 63.75,98.32 L 63.46,100.90 L 63.40,101.61 L 63.30,103.25 L 63.17,106.10 L 62.95,111.40 L 62.71,109.13 L 62.51,108.50 L 62.39,108.30 L 62.14,108.00 L 62.00,108.00 L 61.29,108.29 L 61.00,108.72 L 61.00,109.00 L 60.34,109.71 L 59.37,110.00 L 58.75,110.00 L 56.75,110.32 L 55.39,110.82 L 54.72,111.19 L 53.38,112.02 L 52.75,112.53 L 51.50,113.61 L 50.92,114.22 L 49.82,115.50 L 49.35,116.18 L 48.45,117.58 L 48.10,118.30 L 47.48,119.75 L 47.29,120.48 L 47.00,121.92 L 47.00,122.62 L 47.03,123.42 L 47.13,123.63 L 47.42,123.92 L 47.75,123.86 L 48.53,123.60 L 49.18,123.25 L 49.88,122.87 L 50.31,122.62 L 51.22,122.08 L 51.77,121.75 L 55.51,119.60 L 58.22,118.12 L 59.25,117.59 L 61.25,116.46 L 62.12,115.76 L 62.38,115.37 L 62.80,114.52 L 62.84,114.25 L 62.78,115.76 L 58.96,117.90 L 58.51,118.16 L 57.48,118.89 L 56.95,119.28 L 55.82,120.25 L 54.67,121.26 L 52.25,123.78 L 51.05,125.09 L 48.83,127.87 L 46.14,131.90 L 45.96,132.24 L 45.57,133.19 L 45.37,133.71 L 45.00,134.93 L 44.14,138.82 L 43.97,140.06 L 43.40,141.97 L 43.25,142.37 L 42.95,142.91 L 42.52,143.22 L 42.28,143.20 L 41.82,142.74 L 41.60,142.44 L 41.17,141.50 L 40.96,140.98 L 40.57,139.65 L 40.39,138.94 L 40.06,137.30 L 39.75,135.60 L 39.37,131.60 L 39.27,125.39 L 39.33,124.03 L 39.58,121.50 L 39.64,120.99 L 39.60,121.98 L 39.55,123.55 L 39.54,124.46 L 39.53,126.38 L 39.54,127.50 L 39.65,131.97 L 39.81,134.59 L 39.93,135.69 L 40.21,137.75 L 40.38,138.56 L 40.76,140.02 L 40.99,140.50 L 41.43,141.40 L 41.68,141.82 L 41.78,141.92 L 41.98,142.04 L 42.06,141.97 L 42.22,141.74 L 42.28,141.48 L 42.41,140.85 L 42.47,140.36 L 42.59,139.28 L 42.65,138.55 L 42.76,136.95 L 42.83,135.95 L 42.96,133.79 L 43.03,132.49 L 43.38,128.02 L 43.69,125.21 L 43.86,123.98 L 44.22,121.68 L 44.40,120.82 L 44.59,120.02 L 44.68,119.71 L 44.86,119.16 L 44.95,118.99 L 46.17,117.15 L 47.41,115.60 L 48.18,114.72 L 51.60,111.00 L 53.46,109.16 L 55.32,107.36 L 56.20,106.56 L 57.90,105.03 L 58.63,104.43 L 60.01,103.35 L 60.51,103.04 L 61.36,102.59 L 61.54,102.65 L 62.13,102.61 L 62.49,102.29 L 62.65,101.99 L 62.97,101.30 L 63.11,100.82 L 63.37,99.76 L 63.48,99.09 L 64.04,97.00 L 64.08,96.92 M 90.53,123.97 L 90.32,123.97 L 90.24,123.96 M 81.95,121.18 L 84.46,122.57 L 85.79,123.03 L 87.82,123.61 L 87.20,123.49 L 85.21,122.86 L 84.23,122.50 L 82.39,121.52 L 81.51,120.99 L 80.93,120.53 M 99.85,122.40 L 99.20,122.62 L 100.14,122.26 M 103.74,120.29 L 102.81,120.92 L 101.61,121.54 L 101.91,121.37 L 104.27,119.90 M 106.36,118.20 L 105.54,118.97 L 104.43,119.78 L 105.47,118.90 L 106.99,117.48 M 77.10,109.65 L 77.47,110.60 L 78.47,112.40 L 79.02,113.28 L 80.36,114.88 L 81.07,115.65 L 82.71,116.99 L 85.50,118.64 L 82.52,116.88 L 80.80,115.47 L 80.07,114.66 L 78.72,112.97 L 78.19,112.06 L 77.23,110.17 L 76.90,109.17 L 76.72,108.52 M 108.03,104.29 L 107.97,105.38 L 107.73,107.55 L 107.40,108.61 L 106.61,110.71 L 106.01,111.71 L 104.69,113.70 L 103.82,114.63 L 101.96,116.46 L 101.95,116.46 L 103.85,114.54 L 104.73,113.55 L 106.10,111.37 L 106.72,110.26 L 107.51,107.93 L 108.00,104.35 L 108.00,104.08 M 46.93,104.92 L 46.12,105.94 L 44.58,107.96 L 43.94,108.94 L 42.75,110.88 L 42.30,111.80 L 41.38,113.85 L 41.45,113.67 L 42.36,111.66 L 42.85,110.66 L 44.03,108.71 L 44.66,107.74 L 46.15,105.81 L 46.93,104.84 L 48.75,102.86 L 51.86,99.80 L 48.78,102.87 M 0.62,91.23 L 0.64,91.31 L 0.68,91.85 L 0.74,93.25 L 0.79,94.45 L 0.85,97.34 L 0.87,98.83 L 0.88,102.00 L 0.88,103.59 L 0.85,106.66 L 0.74,110.75 L 0.72,111.35 L 0.68,112.15 L 0.66,112.48 L 0.62,112.77 L 0.60,112.85 L 0.56,112.63 L 0.54,112.47 L 0.51,111.79 L 0.49,111.39 L 0.47,110.27 L 0.46,109.65 L 0.44,108.10 L 0.43,107.28 L 0.42,105.34 L 0.41,104.32 L 0.41,102.00 L 0.41,100.80 L 0.42,98.66 L 0.42,97.64 L 0.44,95.90 L 0.45,95.07 L 0.47,93.73 L 0.48,93.12 L 0.51,92.21 L 0.52,91.81 L 0.56,91.37 L 0.58,91.20 M 73.08,93.16 L 71.80,96.29 L 71.49,98.03 L 71.09,101.64 L 71.21,103.64 L 72.13,108.93 L 73.17,111.72 L 72.90,111.29 L 72.28,110.26 L 71.26,108.19 L 70.79,107.16 L 70.10,105.19 L 69.81,104.22 L 69.53,102.45 L 69.63,100.14 L 69.77,99.54 L 70.25,98.22 L 70.52,97.54 L 71.22,96.12 L 71.97,94.69 L 73.27,92.79 M 113.14,96.00 L 113.71,97.14 L 114.50,99.28 L 115.00,101.94 L 115.00,102.30 L 114.75,103.34 L 114.59,103.91 L 114.08,105.28 L 113.50,106.71 L 111.82,110.06 L 111.78,110.12 L 111.95,109.72 L 112.39,108.19 L 112.55,107.33 L 112.81,105.54 L 112.89,104.53 L 113.00,102.42 L 113.00,101.22 L 112.98,99.05 L 112.95,97.84 L 112.91,97.32 L 112.70,95.47 L 112.46,94.73 L 112.43,94.66 M 76.36,107.19 L 76.35,107.14 L 76.34,107.08 M 93.25,89.25 L 96.26,89.56 L 97.83,89.88 L 98.49,90.12 L 99.73,90.68 L 100.30,91.08 L 101.46,91.96 L 102.09,92.56 L 104.79,95.62 L 106.18,97.74 L 106.67,98.82 L 106.75,99.01 L 106.21,98.20 L 104.38,96.00 L 103.59,95.13 L 102.35,93.90 L 101.75,93.37 L 100.68,92.71 L 100.13,92.43 L 98.93,92.19 L 96.63,92.12 L 96.07,92.13 L 95.19,92.20 L 94.79,92.24 L 94.30,92.34 L 94.11,92.40 L 94.05,92.52 L 94.50,92.72 L 95.28,92.91 L 96.68,93.61 L 97.34,94.00 L 98.42,95.01 L 98.91,95.55 L 99.58,96.78 L 100.00,98.73 L 100.00,101.15 L 97.37,99.07 L 96.39,98.31 L 94.42,97.42 L 93.44,97.09 L 91.48,97.05 L 90.51,97.14 L 88.61,97.95 L 85.90,100.11 L 85.10,100.96 L 83.84,102.93 L 83.58,103.40 L 83.21,104.28 L 82.97,105.36 L 82.96,105.85 L 82.93,106.48 L 82.90,106.74 L 82.78,106.90 L 82.71,106.92 L 82.46,106.62 L 81.88,105.68 L 81.48,104.99 L 81.25,103.42 L 81.22,102.61 L 81.69,100.85 L 82.02,99.96 L 83.17,98.10 L 85.64,95.30 L 89.14,92.00 L 85.40,92.00 L 83.69,92.41 L 82.85,92.68 L 81.29,93.60 L 80.53,94.11 L 79.19,95.49 L 77.59,97.87 L 77.68,97.62 L 78.27,96.60 L 80.94,93.05 L 83.04,91.28 L 84.26,90.68 L 86.84,89.66 L 88.33,89.43 L 91.46,89.14 M 170.24,90.19 L 170.40,90.61 L 170.82,91.34 L 171.11,91.50 L 171.72,91.68 L 171.99,91.50 L 172.47,90.83 L 172.41,92.41 L 172.25,95.58 L 172.16,97.08 L 171.95,99.38 L 171.84,100.42 L 171.56,101.88 L 171.41,102.51 L 171.05,103.25 L 170.37,103.67 L 170.10,103.67 L 169.71,103.33 L 169.54,103.09 L 169.34,102.16 L 169.26,101.60 L 169.23,99.89 L 169.23,98.92 L 169.34,96.28 L 169.42,94.69 L 169.77,91.95 L 169.96,90.67 L 170.21,89.74 M 24.50,94.50 L 25.00,96.00 L 25.00,96.67 L 24.50,97.50 L 23.00,98.00 L 22.33,98.00 L 21.50,97.50 L 21.17,97.17 L 21.00,96.00 L 21.00,95.33 L 21.50,94.50 L 23.00,94.00 L 23.67,94.00 M 116.79,89.53 L 118.07,91.70 L 118.63,92.87 L 118.78,93.19 L 117.23,90.29 L 116.60,89.21 M 105.93,86.71 L 108.76,89.38 L 109.60,90.34 L 109.81,90.63 L 109.31,90.04 L 105.69,86.54 M 81.46,84.55 L 80.42,85.25 L 77.20,87.96 L 77.36,87.79 L 80.90,84.85 L 81.95,84.18 L 82.45,83.97 M 112.30,83.80 L 113.92,85.55 L 114.67,86.50 L 115.64,87.81 L 113.36,84.99 L 112.28,83.78 M 172.24,87.00 L 172.06,87.00 L 171.11,87.32 L 171.38,87.00 L 171.54,86.85 L 171.87,86.79 M 103.82,85.21 L 104.21,85.48 L 103.77,85.18 M 100.36,83.49 L 100.72,83.66 L 99.41,83.17 M 76.27,79.95 L 75.04,80.84 L 72.76,82.97 L 72.45,83.28 L 72.81,82.86 L 73.42,82.25 L 74.63,81.10 L 75.20,80.66 L 78.23,78.63 L 78.52,78.47 M 108.81,80.71 L 109.70,81.44 L 111.47,82.96 L 111.75,83.24 L 108.72,80.72 L 107.74,79.98 M 95.41,82.16 L 96.67,82.37 L 97.78,82.69 L 96.78,82.50 L 93.31,82.03 L 91.36,82.02 L 88.28,82.12 L 89.08,81.97 L 91.61,81.86 L 92.88,81.85 M 105.01,78.19 L 106.66,79.25 L 103.60,77.60 M 80.24,77.57 L 79.60,77.89 L 80.32,77.50 L 81.38,77.04 L 83.52,76.21 L 84.61,75.90 L 85.48,75.69 M 99.85,76.10 L 100.64,76.38 L 98.65,75.79 M 93.38,74.92 L 93.73,74.96 L 93.18,74.92 M 146.89,24.45 L 147.51,24.61 L 150.10,25.46 L 151.55,26.20 L 154.50,27.90 L 156.00,29.00 L 158.99,31.38 L 160.40,32.76 L 162.41,34.81 L 163.56,36.08 L 164.06,36.68 L 165.84,39.02 L 166.48,40.21 L 167.61,42.62 L 168.02,44.01 L 168.75,46.94 L 169.04,48.75 L 170.06,52.94 L 170.46,54.02 L 170.66,54.41 L 171.05,55.05 L 171.23,55.16 L 172.08,55.59 L 172.62,55.74 L 173.72,55.98 L 174.18,55.98 L 175.03,55.79 L 175.38,55.38 L 175.46,54.97 L 175.57,53.99 L 175.56,53.67 L 175.58,53.92 L 175.64,55.67 L 175.65,56.48 L 175.54,57.75 L 175.47,58.32 L 175.19,59.14 L 175.03,59.50 L 174.56,59.91 L 174.30,60.06 L 173.62,60.09 L 173.26,60.06 L 172.36,59.74 L 171.88,59.55 L 170.75,58.92 L 170.41,58.72 L 169.90,58.14 L 169.67,57.80 L 169.36,56.82 L 169.22,56.27 L 169.07,54.75 L 168.97,51.70 L 168.96,50.78 L 168.89,49.18 L 168.84,48.42 L 168.66,47.10 L 168.56,46.48 L 168.26,45.43 L 168.10,44.94 L 167.67,44.13 L 167.20,43.37 L 165.81,42.48 L 162.91,41.85 L 161.97,41.79 L 160.21,41.51 L 159.81,41.43 L 159.16,41.25 L 158.50,40.98 L 158.22,40.79 L 157.24,40.31 L 155.61,39.63 L 155.08,39.44 L 154.48,39.31 L 154.38,39.32 L 154.33,39.48 L 154.33,39.59 L 154.52,39.99 L 154.65,40.23 L 155.12,40.95 L 155.39,41.36 L 156.16,42.46 L 156.59,43.06 L 157.71,44.60 L 159.81,47.47 L 160.24,48.06 L 160.92,49.06 L 161.23,49.52 L 161.66,50.28 L 161.85,50.63 L 162.03,51.16 L 162.09,51.39 L 162.03,51.70 L 161.96,51.82 L 161.64,51.90 L 161.45,51.91 L 161.08,51.83 L 161.31,51.84 L 161.78,51.80 L 161.85,51.65 L 161.89,51.24 L 161.74,50.89 L 161.33,50.11 L 160.96,49.57 L 160.10,48.39 L 159.50,47.65 L 158.19,46.07 L 157.37,45.12 L 155.60,43.13 L 154.55,41.97 L 151.04,38.00 L 148.83,35.38 L 147.87,34.19 L 146.06,31.89 L 145.39,30.97 L 144.76,30.08 L 144.51,29.71 L 144.08,29.03 L 143.94,28.77 L 141.98,25.04 L 144.35,24.45 L 145.79,24.33 M 132.22,38.16 L 132.38,38.27 L 132.81,38.63 L 133.28,39.04 L 134.64,40.35 L 135.38,41.07 L 137.13,42.89 L 140.00,46.00 L 140.94,47.05 L 142.51,48.84 L 143.24,49.68 L 144.38,51.06 L 144.90,51.70 L 145.60,52.65 L 145.89,53.06 L 146.15,53.56 L 146.22,53.74 L 146.03,53.76 L 145.88,53.71 L 145.22,53.24 L 144.84,52.94 L 143.72,51.95 L 143.10,51.40 L 141.50,49.88 L 140.40,48.82 L 137.72,46.30 L 137.06,45.68 L 135.83,44.54 L 134.25,43.10 L 133.46,42.39 L 132.30,41.11 L 131.78,40.49 L 131.20,39.49 L 130.99,39.03 L 131.04,38.40 L 131.89,38.00 L 131.96,38.00 M 160.94,51.79 L 160.87,51.78 L 160.55,51.68 L 160.16,51.52 M 160.07,51.48 L 159.71,51.34 L 158.52,50.76 M 142.70,35.38 L 145.63,38.80 L 147.11,40.42 L 150.05,43.58 L 151.43,44.95 L 154.12,47.54 L 155.29,48.52 L 156.41,49.43 L 156.92,49.79 L 157.88,50.44 L 157.76,50.37 L 156.79,49.72 L 156.29,49.37 L 155.16,48.45 L 154.00,47.47 L 151.32,44.88 L 149.94,43.51 L 147.01,40.34 L 145.54,38.72 L 142.63,35.30 L 141.95,34.48 M 171.57,35.97 L 172.18,37.27 L 172.47,38.08 L 171.48,35.79 M 161.19,23.57 L 162.30,24.33 L 164.35,26.05 L 165.35,26.95 L 167.15,28.96 L 168.02,29.99 L 169.56,32.27 L 170.30,33.44 L 170.83,34.50 L 170.29,33.56 L 168.36,30.52 L 167.24,29.17 L 164.90,26.58 L 163.58,25.46 L 160.97,23.44 M 48.17,29.14 L 49.22,29.82 L 49.67,30.27 L 49.90,31.00 L 49.23,32.17 L 49.01,32.39 L 48.64,32.64 L 48.47,32.73 L 48.17,32.72 L 48.03,32.68 L 47.78,32.38 L 47.66,32.20 L 47.41,31.62 L 47.20,31.07 L 47.12,30.20 L 47.13,29.80 L 47.42,29.32 L 47.61,29.14 M 157.65,21.53 L 158.89,22.14 L 160.52,23.15 L 159.37,22.49 L 156.87,21.20 M 152.53,19.58 L 154.59,20.23 L 155.56,20.64 L 154.64,20.31 L 151.59,19.38 M 136.39,18.04 L 135.83,18.06 L 135.18,18.13 L 133.95,18.28 L 133.48,18.39 L 132.64,18.64 L 132.38,18.80 L 132.00,19.14 L 132.00,18.88 L 132.37,18.45 L 132.65,18.26 L 133.85,18.08 L 134.21,18.05 L 135.16,18.03 L 135.67,18.02 M 148.91,18.90 L 149.25,18.96 L 147.44,18.74 M 119.70,95.25 L 120.16,96.51 L 119.70,95.25 Z" fill="rgba(207,154,169,1)"/>
<path d="M 72.50,193.00 L 72.58,192.86 L 72.97,192.61 L 73.20,192.49 L 73.80,192.29 L 76.06,192.00 L 76.87,192.00 L 78.14,192.29 L 78.40,192.38 L 78.77,192.61 L 79.00,193.00 L 79.00,193.14 L 78.72,193.39 L 78.54,193.51 L 77.95,193.71 L 75.44,194.00 L 74.91,194.00 L 74.04,193.93 L 73.63,193.88 L 73.04,193.72 L 72.78,193.64 L 72.51,193.41 L 72.41,193.29 M 126.00,176.00 L 126.00,174.58 L 125.92,172.43 L 125.85,171.45 L 125.61,169.98 L 125.46,169.31 L 125.00,168.29 L 124.00,167.00 L 123.41,166.41 L 122.63,165.23 L 122.30,164.65 L 122.08,163.59 L 122.03,163.08 L 122.37,162.24 L 123.51,161.36 L 123.94,161.19 L 124.69,161.06 L 125.04,161.04 L 125.66,161.20 L 125.95,161.32 L 126.43,161.79 L 126.66,162.07 L 127.04,162.90 L 127.21,163.35 L 127.48,164.54 L 127.60,165.18 L 127.78,166.77 L 127.86,167.61 L 127.95,169.61 L 128.00,173.12 L 128.00,174.60 L 127.93,177.16 L 127.88,178.37 L 127.72,180.28 L 127.64,181.15 L 127.41,182.29 L 127.00,183.00 L 126.86,183.00 L 126.60,182.47 L 126.48,182.12 L 126.29,181.00 L 126.20,180.38 L 126.08,178.78 L 126.03,177.94 M 141.02,177.75 L 141.02,176.68 L 141.20,175.13 L 141.35,174.42 L 142.08,173.28 L 142.54,172.72 L 144.13,171.59 L 144.59,171.28 L 145.75,170.61 L 147.86,169.46 L 149.01,168.83 L 151.08,167.55 L 152.08,166.89 L 153.84,165.51 L 154.69,164.81 L 156.19,163.29 L 156.91,162.51 L 158.18,160.80 L 158.78,159.92 L 159.85,157.97 L 160.36,156.96 L 161.25,154.73 L 161.68,153.57 L 162.44,151.01 L 163.47,146.72 L 163.70,145.62 L 164.56,143.78 L 165.05,142.93 L 166.38,141.66 L 167.10,141.10 L 168.83,140.44 L 171.80,140.19 L 172.45,140.25 L 173.53,140.46 L 174.03,140.58 L 174.80,140.91 L 175.14,141.08 L 175.60,141.48 L 175.79,141.69 L 175.92,142.14 L 175.95,142.37 L 175.77,142.84 L 175.64,143.07 L 175.13,143.52 L 174.84,143.74 L 174.00,144.14 L 172.38,144.66 L 171.49,144.87 L 170.28,145.27 L 169.74,145.50 L 169.03,146.20 L 168.71,146.62 L 168.23,147.95 L 168.12,148.34 L 167.89,149.29 L 167.52,151.02 L 167.26,152.27 L 166.68,154.52 L 166.38,155.60 L 165.66,157.56 L 165.28,158.52 L 164.36,160.27 L 163.87,161.13 L 162.69,162.75 L 162.07,163.55 L 160.58,165.11 L 159.79,165.90 L 157.92,167.48 L 156.94,168.28 L 154.64,169.96 L 150.64,172.66 L 149.70,173.28 L 147.94,174.55 L 147.09,175.18 L 145.65,176.39 L 144.98,176.97 L 144.01,177.96 L 143.27,179.06 L 143.07,179.84 L 142.58,180.66 L 142.33,180.96 L 141.83,180.90 L 141.60,180.76 L 141.25,179.89 L 141.10,179.36 M 40.50,176.62 L 38.41,175.39 L 34.65,172.95 L 32.84,171.73 L 29.62,169.33 L 28.08,168.13 L 25.41,165.76 L 24.13,164.57 L 21.99,162.20 L 20.98,161.02 L 19.35,158.66 L 18.60,157.48 L 17.48,155.11 L 16.98,153.93 L 16.37,151.54 L 16.00,147.94 L 16.00,147.33 L 15.89,146.46 L 15.80,146.07 L 15.43,145.56 L 15.20,145.34 L 14.45,145.07 L 12.75,144.81 L 12.13,144.75 L 11.20,144.57 L 10.78,144.46 L 10.20,144.14 L 9.94,143.96 L 9.66,143.47 L 9.50,142.50 L 9.50,142.12 L 9.66,141.53 L 9.77,141.26 L 10.19,140.86 L 10.44,140.68 L 11.19,140.44 L 12.73,140.19 L 13.79,140.09 L 15.81,140.62 L 16.78,140.98 L 18.45,142.29 L 19.22,143.01 L 20.30,144.86 L 21.00,147.99 L 21.00,148.91 L 21.35,150.84 L 21.57,151.82 L 22.34,153.83 L 22.78,154.84 L 23.94,156.88 L 24.56,157.90 L 26.07,159.92 L 26.86,160.92 L 28.68,162.87 L 29.63,163.83 L 31.72,165.67 L 32.80,166.57 L 35.12,168.24 L 38.83,170.51 L 39.82,171.04 L 41.31,171.97 L 41.98,172.41 L 42.90,173.22 L 43.30,173.62 L 43.75,174.40 L 44.00,175.66 L 44.00,176.30 L 43.87,177.14 L 43.78,177.49 L 43.37,177.77 L 43.11,177.83 L 42.30,177.57 L 41.83,177.38 M 60.46,165.93 L 60.28,165.64 L 59.58,165.34 L 58.40,165.40 L 58.01,165.55 L 57.42,165.42 L 57.02,164.72 L 57.02,164.16 L 57.26,163.22 L 57.41,162.79 L 57.87,162.12 L 58.13,161.82 L 58.74,161.42 L 59.06,161.25 L 59.74,161.13 L 60.09,161.10 L 60.77,161.26 L 61.10,161.37 L 61.70,161.81 L 61.98,162.07 L 62.42,162.81 L 62.82,164.26 L 62.89,164.94 L 62.76,165.96 L 62.65,166.40 L 62.23,166.88 L 61.99,167.05 L 61.40,166.92 L 61.10,166.77 M 74.04,154.03 L 73.82,153.89 L 73.50,153.36 L 73.35,153.06 L 73.19,152.27 L 73.06,151.44 L 73.20,149.39 L 73.34,148.36 L 73.95,146.47 L 74.13,146.04 L 74.55,145.33 L 75.28,144.60 L 75.86,144.24 L 76.84,144.16 L 77.29,144.23 L 78.00,144.97 L 78.31,145.44 L 78.72,146.98 L 78.98,150.13 L 78.99,150.82 L 78.90,151.88 L 78.83,152.36 L 78.58,153.08 L 78.44,153.40 L 78.00,153.84 L 77.11,154.26 L 76.59,154.40 L 75.43,154.40 L 74.87,154.35 M 140.78,135.03 L 140.87,133.36 L 140.92,130.42 L 140.92,129.02 L 140.79,126.54 L 140.69,125.35 L 140.33,123.21 L 140.12,122.18 L 139.50,120.28 L 139.15,119.35 L 138.22,117.58 L 137.71,116.70 L 136.44,114.95 L 135.75,114.07 L 134.09,112.23 L 131.11,109.25 L 130.21,108.39 L 128.48,106.82 L 127.65,106.08 L 126.18,104.84 L 125.49,104.27 L 124.44,103.49 L 123.52,103.00 L 123.38,103.00 L 122.93,102.49 L 122.69,102.16 L 122.10,101.09 L 121.80,100.51 L 121.14,99.03 L 120.16,96.51 L 119.70,95.25 L 118.63,92.87 L 118.07,91.70 L 116.79,89.53 L 116.13,88.47 L 114.67,86.50 L 113.92,85.55 L 112.30,83.80 L 111.47,82.96 L 109.70,81.44 L 108.81,80.71 L 106.92,79.42 L 105.01,78.19 L 100.90,76.47 L 99.85,76.10 L 97.72,75.56 L 96.65,75.32 L 94.47,75.03 L 93.38,74.92 L 91.18,74.91 L 90.08,74.94 L 87.89,75.20 L 86.79,75.36 L 84.61,75.90 L 83.52,76.21 L 81.38,77.04 L 80.32,77.50 L 78.23,78.63 L 75.20,80.66 L 74.63,81.10 L 73.42,82.25 L 72.81,82.86 L 71.57,84.30 L 70.32,85.80 L 67.95,89.30 L 66.83,91.07 L 65.03,94.58 L 64.64,95.43 L 64.04,97.00 L 63.48,99.09 L 63.37,99.76 L 63.11,100.82 L 62.97,101.30 L 62.65,101.99 L 62.49,102.29 L 62.13,102.61 L 61.54,102.65 L 61.36,102.59 L 60.51,103.04 L 60.01,103.35 L 58.63,104.43 L 57.90,105.03 L 56.20,106.56 L 55.32,107.36 L 53.46,109.16 L 51.60,111.00 L 48.18,114.72 L 47.41,115.60 L 46.17,117.15 L 44.95,118.99 L 44.86,119.16 L 44.68,119.71 L 44.59,120.02 L 44.40,120.82 L 44.22,121.68 L 43.86,123.98 L 43.69,125.21 L 43.38,128.02 L 43.03,132.49 L 42.96,133.79 L 42.83,135.95 L 42.76,136.95 L 42.65,138.55 L 42.59,139.28 L 42.47,140.36 L 42.41,140.85 L 42.28,141.48 L 42.22,141.74 L 42.06,141.97 L 41.98,142.04 L 41.78,141.92 L 41.68,141.82 L 41.43,141.40 L 40.99,140.50 L 40.76,140.02 L 40.38,138.56 L 40.21,137.75 L 39.93,135.69 L 39.81,134.59 L 39.65,131.97 L 39.54,127.50 L 39.53,126.38 L 39.54,124.46 L 39.55,123.55 L 39.60,121.98 L 39.66,120.49 L 39.96,118.20 L 40.15,117.12 L 40.80,115.15 L 42.30,111.80 L 42.75,110.88 L 43.94,108.94 L 44.58,107.96 L 46.12,105.94 L 46.93,104.92 L 48.78,102.87 L 51.86,99.80 L 53.72,98.07 L 57.62,93.88 L 58.53,92.86 L 60.13,90.94 L 61.97,88.50 L 62.43,87.81 L 63.67,86.01 L 64.32,85.06 L 65.82,82.94 L 70.38,76.58 L 75.44,69.66 L 76.04,54.58 L 76.13,52.33 L 76.37,48.39 L 76.50,46.50 L 76.85,43.20 L 77.04,41.62 L 77.53,38.88 L 77.79,37.57 L 78.45,35.30 L 78.80,34.22 L 79.64,32.35 L 80.09,31.45 L 81.16,29.87 L 81.73,29.12 L 83.04,27.76 L 85.33,25.88 L 86.52,25.01 L 88.71,23.89 L 89.78,23.44 L 91.81,23.14 L 92.83,23.09 L 94.86,23.60 L 98.08,25.28 L 99.65,26.33 L 102.14,28.73 L 103.29,29.99 L 105.04,32.97 L 105.44,33.77 L 106.11,35.51 L 106.43,36.41 L 106.95,38.37 L 107.20,39.39 L 107.59,41.61 L 108.05,45.27 L 108.18,46.54 L 108.40,49.46 L 108.51,50.95 L 108.69,54.04 L 108.77,55.57 L 108.89,58.45 L 108.97,62.15 L 109.00,69.80 L 117.51,81.73 L 118.75,83.47 L 121.43,86.97 L 122.78,88.70 L 125.50,91.96 L 126.84,93.53 L 129.36,96.28 L 132.65,99.52 L 133.83,100.56 L 135.89,102.59 L 136.88,103.61 L 138.60,105.63 L 139.41,106.64 L 140.79,108.70 L 141.44,109.74 L 142.51,111.87 L 143.01,112.95 L 143.79,115.21 L 144.14,116.36 L 144.65,118.79 L 144.87,120.02 L 145.13,122.66 L 145.26,126.90 L 145.24,129.08 L 144.90,133.27 L 144.68,135.30 L 144.03,138.83 L 143.85,139.65 L 143.45,141.08 L 143.24,141.76 L 142.80,142.87 L 142.58,143.38 L 142.11,144.11 L 141.38,144.71 L 141.19,144.77 L 140.93,144.27 L 140.81,143.92 L 140.68,142.56 L 140.63,141.76 L 140.63,139.50 L 140.65,138.25 M 98.78,53.75 L 98.50,41.50 L 92.77,41.61 L 91.76,41.64 L 90.07,41.72 L 89.28,41.78 L 87.99,41.99 L 87.39,42.12 L 86.44,42.52 L 86.01,42.75 L 85.35,43.40 L 85.06,43.76 L 84.65,44.73 L 84.46,45.26 L 84.24,46.60 L 84.14,47.33 L 84.05,49.12 L 84.01,52.37 L 84.02,54.00 L 84.04,56.68 L 84.07,57.93 L 84.20,59.93 L 84.29,60.85 L 84.61,62.27 L 84.80,62.91 L 85.40,63.86 L 85.73,64.28 L 86.68,64.86 L 87.21,65.11 L 88.59,65.42 L 89.35,65.55 L 91.25,65.70 L 94.78,65.85 L 99.06,66.00 L 98.78,53.75 M 47.00,122.62 L 47.00,121.92 L 47.29,120.48 L 47.48,119.75 L 48.10,118.30 L 48.45,117.58 L 49.35,116.18 L 49.82,115.50 L 50.92,114.22 L 51.50,113.61 L 52.75,112.53 L 53.38,112.02 L 54.72,111.19 L 55.39,110.82 L 56.75,110.32 L 58.75,110.00 L 59.37,110.00 L 60.34,109.71 L 61.00,109.00 L 61.00,108.72 L 61.29,108.29 L 62.00,108.00 L 62.14,108.00 L 62.39,108.30 L 62.51,108.50 L 62.71,109.13 L 63.00,111.84 L 63.00,112.70 L 62.89,113.95 L 62.80,114.52 L 62.38,115.37 L 62.12,115.76 L 61.25,116.46 L 59.25,117.59 L 58.22,118.12 L 55.51,119.60 L 51.77,121.75 L 51.22,122.08 L 50.31,122.62 L 49.88,122.87 L 49.18,123.25 L 48.53,123.60 L 47.75,123.86 L 47.42,123.92 L 47.13,123.63 L 47.03,123.42 M 81.95,121.18 L 80.26,120.10 L 77.49,117.68 L 76.20,116.42 L 74.22,113.60 L 73.33,112.14 L 72.13,108.93 L 71.21,103.64 L 71.09,101.64 L 71.49,98.03 L 71.80,96.29 L 73.08,93.16 L 73.84,91.65 L 76.04,88.94 L 80.42,85.25 L 81.46,84.55 L 83.13,83.56 L 83.94,83.13 L 85.46,82.58 L 86.24,82.35 L 88.00,82.12 L 91.36,82.02 L 93.31,82.03 L 96.78,82.50 L 98.46,82.81 L 101.46,83.94 L 102.92,84.59 L 105.58,86.43 L 109.31,90.04 L 110.18,91.06 L 111.35,92.60 L 111.86,93.33 L 112.46,94.73 L 112.70,95.47 L 112.91,97.32 L 112.95,97.84 L 112.98,99.05 L 113.00,101.22 L 113.00,102.42 L 112.89,104.53 L 112.81,105.54 L 112.55,107.33 L 112.39,108.19 L 111.95,109.72 L 111.09,111.79 L 110.37,113.20 L 108.57,115.69 L 107.63,116.88 L 105.47,118.90 L 104.35,119.85 L 101.91,121.37 L 100.66,122.07 L 98.03,123.06 L 96.70,123.49 L 93.96,123.93 L 92.59,124.08 L 89.84,123.94 L 88.47,123.79 L 85.79,123.03 L 84.46,122.57 M 100.82,117.30 L 101.96,116.46 L 103.82,114.63 L 104.69,113.70 L 106.01,111.71 L 106.61,110.71 L 107.40,108.61 L 107.73,107.55 L 107.97,105.38 L 108.03,104.29 L 107.73,102.09 L 107.52,101.00 L 106.67,98.82 L 106.18,97.74 L 104.79,95.62 L 102.09,92.56 L 101.46,91.96 L 100.30,91.08 L 99.73,90.68 L 98.49,90.12 L 97.83,89.88 L 96.26,89.56 L 93.25,89.25 L 91.46,89.14 L 88.33,89.43 L 86.84,89.66 L 84.26,90.68 L 83.04,91.28 L 80.94,93.05 L 78.27,96.60 L 77.68,97.62 L 76.89,99.72 L 76.55,100.78 L 76.22,102.91 L 76.11,103.98 L 76.23,106.09 L 76.35,107.14 L 76.90,109.17 L 77.23,110.17 L 78.19,112.06 L 78.72,112.97 L 80.07,114.66 L 80.80,115.47 L 82.52,116.88 L 85.50,118.64 L 86.50,119.11 L 89.11,119.57 L 90.47,119.72 L 93.40,119.60 L 94.85,119.48 L 97.57,118.82 L 98.21,118.63 L 99.36,118.15 L 99.91,117.90 M 13.60,93.97 L 13.29,93.07 L 12.94,91.60 L 12.82,90.92 L 12.83,89.87 L 12.88,89.40 L 13.26,88.75 L 14.25,88.21 L 14.74,88.11 L 15.43,88.58 L 15.72,88.89 L 16.00,89.96 L 16.08,90.54 L 15.89,91.91 L 15.04,93.97 L 14.83,94.30 L 14.53,94.70 L 14.39,94.86 L 14.18,94.94 L 14.08,94.94 L 13.90,94.70 L 13.81,94.54 M 170.40,90.61 L 170.24,90.19 L 170.19,89.33 L 170.20,88.91 L 170.45,88.17 L 170.61,87.82 L 171.11,87.33 L 172.06,87.00 L 172.37,87.00 L 172.76,87.59 L 172.91,87.95 L 172.98,88.96 L 172.97,89.47 L 172.72,90.47 L 171.99,91.50 L 171.72,91.68 L 171.11,91.50 L 170.82,91.34 M 145.00,80.61 L 145.00,80.19 L 144.52,79.28 L 143.38,78.19 L 143.01,77.99 L 142.55,77.63 L 142.37,77.45 L 142.29,77.02 L 142.30,76.78 L 142.60,76.10 L 143.50,74.64 L 144.00,73.88 L 144.88,72.86 L 145.30,72.44 L 146.02,72.12 L 146.36,72.05 L 146.95,72.42 L 147.71,73.75 L 147.89,74.23 L 148.47,75.19 L 149.40,76.20 L 149.72,76.41 L 149.70,76.88 L 148.72,77.55 L 148.25,77.73 L 147.51,78.41 L 147.00,79.55 L 147.00,79.91 L 146.71,80.67 L 146.00,81.50 L 145.72,81.67 L 145.29,81.49 L 145.11,81.33 M 20.27,56.00 L 19.56,55.89 L 18.39,55.69 L 17.84,55.59 L 17.00,55.39 L 16.63,55.29 L 16.11,55.09 L 15.89,54.99 L 15.70,54.78 L 15.65,54.67 L 15.77,54.44 L 15.88,54.33 L 16.32,54.07 L 16.58,53.94 L 17.33,53.65 L 18.80,53.18 L 20.15,52.77 L 22.34,51.66 L 23.34,51.06 L 24.87,49.51 L 25.56,48.68 L 26.47,46.64 L 27.18,43.01 L 27.24,42.22 L 27.42,40.95 L 27.52,40.37 L 27.81,39.50 L 27.96,39.11 L 28.36,38.61 L 29.11,38.21 L 29.42,38.15 L 29.92,38.29 L 30.14,38.40 L 30.50,38.95 L 30.66,39.28 L 30.92,40.31 L 31.25,42.52 L 31.42,44.01 L 32.20,46.49 L 32.66,47.65 L 34.05,49.47 L 34.82,50.30 L 36.85,51.48 L 40.64,52.57 L 41.47,52.70 L 42.79,52.97 L 43.39,53.11 L 44.23,53.40 L 44.59,53.56 L 44.95,53.87 L 45.07,54.03 L 44.96,54.37 L 44.85,54.54 L 44.27,54.88 L 43.92,55.06 L 42.87,55.42 L 42.29,55.60 L 40.77,55.96 L 37.97,56.52 L 37.29,56.64 L 36.13,56.72 L 35.58,56.72 L 34.60,56.55 L 34.12,56.43 L 33.18,55.98 L 31.66,54.95 L 30.98,54.41 L 30.03,53.73 L 29.60,53.45 L 28.96,53.29 L 28.64,53.28 L 28.00,53.62 L 26.69,54.70 L 26.26,55.08 L 25.43,55.62 L 25.00,55.85 L 24.09,56.11 L 23.60,56.21 L 22.45,56.22 L 21.82,56.20 M 171.23,55.16 L 171.05,55.05 L 170.66,54.41 L 170.46,54.02 L 170.06,52.94 L 169.04,48.75 L 168.75,46.94 L 168.02,44.01 L 167.61,42.62 L 166.48,40.21 L 165.84,39.02 L 164.06,36.68 L 163.56,36.08 L 162.41,34.81 L 160.40,32.76 L 158.99,31.38 L 156.00,29.00 L 154.50,27.90 L 151.55,26.20 L 150.10,25.46 L 147.51,24.61 L 146.89,24.45 L 145.79,24.33 L 144.35,24.45 L 141.98,25.04 L 143.94,28.77 L 144.08,29.03 L 144.51,29.71 L 144.76,30.08 L 145.39,30.97 L 146.06,31.89 L 147.87,34.19 L 148.83,35.38 L 151.04,38.00 L 154.55,41.97 L 155.60,43.13 L 157.37,45.12 L 158.19,46.07 L 159.50,47.65 L 160.10,48.39 L 160.96,49.57 L 161.33,50.11 L 161.74,50.89 L 161.89,51.24 L 161.85,51.65 L 161.78,51.80 L 161.31,51.84 L 161.02,51.82 L 160.12,51.51 L 158.28,50.65 L 157.88,50.44 L 156.92,49.79 L 156.41,49.43 L 155.29,48.52 L 154.12,47.54 L 151.43,44.95 L 150.05,43.58 L 147.11,40.42 L 145.63,38.80 L 142.70,35.38 L 141.27,33.66 L 138.60,30.29 L 137.33,28.63 L 135.19,25.61 L 134.70,24.89 L 133.87,23.57 L 133.48,22.93 L 132.86,21.81 L 132.59,21.27 L 132.22,20.38 L 132.00,19.34 L 132.00,19.14 L 132.38,18.80 L 132.64,18.64 L 133.48,18.39 L 133.95,18.28 L 135.18,18.13 L 135.83,18.06 L 137.39,18.00 L 139.01,17.97 L 142.97,18.20 L 149.45,18.99 L 151.25,19.28 L 154.64,20.31 L 156.30,20.90 L 159.37,22.49 L 160.86,23.35 L 163.58,25.46 L 164.90,26.58 L 167.24,29.17 L 168.36,30.52 L 170.29,33.56 L 171.20,35.13 L 172.68,38.57 L 173.37,40.34 L 174.38,44.15 L 175.34,50.25 L 175.45,51.48 L 175.55,53.23 L 175.57,53.99 L 175.46,54.97 L 175.38,55.38 L 175.03,55.79 L 174.18,55.98 L 173.72,55.98 L 172.62,55.74 L 172.08,55.59 M 72.00,25.08 L 72.00,24.98 L 72.25,24.41 L 72.41,24.08 L 72.93,23.15 L 75.17,19.55 L 76.06,18.21 L 78.22,15.70 L 79.34,14.49 L 81.78,12.38 L 83.01,11.39 L 85.49,9.88 L 88.97,8.51 L 90.10,8.26 L 92.63,8.35 L 93.93,8.49 L 96.65,9.30 L 98.00,9.78 L 100.67,11.22 L 104.38,14.00 L 105.22,14.77 L 106.46,16.07 L 107.01,16.70 L 107.78,17.86 L 108.12,18.44 L 108.53,19.63 L 108.84,21.68 L 109.10,25.48 L 105.80,22.35 L 104.70,21.32 L 102.52,19.62 L 101.42,18.84 L 99.23,17.66 L 98.14,17.13 L 95.95,16.46 L 94.85,16.19 L 92.66,16.03 L 91.56,16.02 L 89.37,16.37 L 88.27,16.61 L 86.08,17.47 L 84.98,17.97 L 82.79,19.34 L 79.50,21.98 L 78.77,22.65 L 77.10,23.80 L 76.26,24.33 L 74.65,25.09 L 73.90,25.40 L 72.76,25.59 L 72.52,25.60 L 72.20,25.48 L 72.07,25.39 Z" fill="rgba(237,243,248,1)"/>
</g>
</svg>